<svg width="4000" height="2666" viewBox="0 0 4000 2666" fill="none" xmlns="http://www.w3.org/2000/svg">
<path d="M1555.42 603.538C1979.24 579.552 2423.58 704.486 2358.27 885.596C2292.95 1066.71 2707.46 821.27 2872.88 886.569C2990.64 933.055 2943.57 1074.57 3000.54 1131.6C3131.17 1262.34 3264.78 1097.7 3431.03 1196.49C3597.29 1295.27 3256.9 2217.26 3083.21 2222.41L1102.17 2210.66L960.009 2198.21C960.009 2198.21 566.76 1988.48 848.067 1795.01C1038.28 1664.19 901.418 1569.2 880.729 1509.31C856.978 1440.55 801.56 1320.45 1043.03 1232.32C1284.51 1144.19 1222.16 952.428 1216.22 912.727C1210.28 873.008 1131.62 627.523 1555.42 603.538V603.538Z" fill="url(#paint0_linear_101_2)"/>
<path d="M2186.67 2292.76C3011.41 2292.76 3680 2268.89 3680 2239.44C3680 2210 3011.41 2186.12 2186.67 2186.12C1361.92 2186.12 693.333 2210 693.333 2239.44C693.333 2268.89 1361.92 2292.76 2186.67 2292.76Z" fill="url(#paint1_linear_101_2)"/>
<path d="M849.804 1883.61C849.804 1883.61 932.32 1731.11 1148.39 1582.34C1300.93 1477.29 1374.99 1206.2 1374.99 1206.2C1374.99 1206.2 1070.8 1241.25 951.311 1436.39C831.826 1631.53 849.804 1883.61 849.804 1883.61Z" fill="#6A66EA"/>
<path d="M849.054 1887.59C851.116 1887.44 852.854 1885.93 853.174 1883.95C884.645 1718.94 970.107 1594.81 1036.35 1519.66C1108.14 1438.35 1173.12 1395.56 1173.78 1395.17C1175.87 1393.75 1176.48 1390.95 1175.06 1388.86C1174.73 1388.36 1174.31 1387.93 1173.81 1387.59C1173.31 1387.26 1172.76 1387.02 1172.17 1386.9C1171.58 1386.78 1170.98 1386.78 1170.39 1386.9C1169.8 1387.01 1169.24 1387.24 1168.74 1387.58C1168.08 1387.97 1102 1431.41 1029.46 1513.7C962.467 1589.59 875.956 1715.18 844.169 1882.17C844.049 1882.75 844.048 1883.35 844.165 1883.94C844.283 1884.52 844.517 1885.08 844.853 1885.57C845.189 1886.06 845.621 1886.48 846.123 1886.8C846.625 1887.13 847.186 1887.34 847.774 1887.44C848.356 1887.52 848.707 1887.61 849.054 1887.59Z" fill="#4E5C8F"/>
<path d="M889.604 1877.43C889.604 1877.43 912.316 1822.44 1032.68 1827.23C1153.04 1831.91 1224.09 1893.59 1427.91 1759.06C1427.91 1759.06 1259.22 1637.72 1088.7 1676.62C918.058 1715.41 909.48 1782.64 889.604 1877.43V1877.43Z" fill="#6A66EA"/>
<path d="M889.351 1881.95C890.84 1881.84 892.276 1880.93 893.093 1879.49C893.609 1878.65 940.965 1790.89 1025.78 1769.17C1173.99 1731.17 1279.51 1771.83 1280.58 1772.33C1281.72 1772.76 1282.97 1772.73 1284.08 1772.24C1285.19 1771.75 1286.06 1770.85 1286.51 1769.72C1286.93 1768.6 1286.9 1767.36 1286.44 1766.26C1285.98 1765.15 1285.11 1764.27 1284.01 1763.79C1282.94 1763.4 1174.69 1721.56 1023.53 1760.34C934.756 1783.04 887.107 1871.5 885.067 1875.22C883.845 1877.5 884.729 1880.2 887.005 1881.42C887.614 1881.84 888.547 1882 889.351 1881.95V1881.95Z" fill="#4E5C8F"/>
<path d="M836.493 1868.31C836.493 1868.31 842.769 1809.19 734.738 1755.92C626.707 1702.64 534.875 1722.9 420.009 1507.46C420.009 1507.46 626.147 1481.36 757.529 1596.95C888.898 1712.3 864.231 1775.5 836.493 1868.31Z" fill="#6A66EA"/>
<path d="M837.409 1873.09C839.702 1872.92 841.64 1870.94 841.591 1868.64C841.631 1864.37 841.849 1763.95 774.795 1701.65C660.458 1595.45 545.364 1580.6 544.315 1580.44C543.13 1580.31 541.939 1580.65 541 1581.38C540.061 1582.12 539.448 1583.19 539.293 1584.38C539.16 1585.56 539.497 1586.75 540.233 1587.69C540.968 1588.63 542.043 1589.24 543.227 1589.4C544.391 1589.54 656.578 1604.14 768.698 1708.31C832.907 1767.94 832.631 1867.55 832.591 1868.59C832.577 1869.19 832.683 1869.79 832.902 1870.35C833.12 1870.9 833.448 1871.41 833.865 1871.85C834.282 1872.28 834.78 1872.62 835.331 1872.86C835.883 1873.1 836.475 1873.22 837.075 1873.23C837.067 1873.11 837.182 1873.1 837.409 1873.09Z" fill="#4E5C8F"/>
<path d="M887.982 2275.16C1044.85 2275.16 1144.68 2250.21 1128.68 2139.72C1118.51 2069.57 1063.82 2000.93 1025.21 1960.06C1020.24 1954.81 1015.18 1949.65 1010.04 1944.58C995.698 1930.48 986.067 1922.29 986.067 1922.29L985.609 1919.71L982.88 1904.24L979.693 1886.42L972.489 1845.61L969.982 1831.36L887.982 1827.79L802.413 1831.36L800.445 1845.61L797.409 1868.06L792.4 1904.31L790.28 1919.79L789.973 1922.36C789.973 1922.36 780.342 1930.48 766.005 1944.66C760.875 1949.75 755.817 1954.9 750.831 1960.13C712.222 2000.93 657.529 2069.64 647.365 2139.79C631.28 2250.21 731.111 2275.16 887.982 2275.16V2275.16Z" fill="#4E5C8F"/>
<path d="M770.529 1857.22H1007.72C1020.43 1857.22 1030.83 1846.83 1030.83 1834.13V1819.68C1030.83 1806.98 1020.43 1796.59 1007.72 1796.59H770.529C757.827 1796.59 747.427 1806.98 747.427 1819.68V1834.13C747.427 1846.83 757.827 1857.22 770.529 1857.22Z" fill="#4E5C8F"/>
<path d="M733.333 1289.31C733.333 1313.86 712.431 1333.74 686.613 1333.74C660.796 1333.74 640 1313.76 640 1289.31C640 1264.75 660.902 1244.88 686.72 1244.88C712.538 1244.88 733.333 1264.75 733.333 1289.31Z" stroke="#4FD1C5" stroke-width="5.225" stroke-miterlimit="10"/>
<path d="M1019.23 1018.07C951.796 1076.98 835.804 1054.64 835.804 1054.64C835.804 1054.64 829.213 936.797 896.698 877.931C964.129 819.026 1080.07 841.323 1080.07 841.323C1080.07 841.323 1086.66 959.164 1019.23 1018.07Z" fill="url(#paint2_linear_101_2)"/>
<path d="M1276.35 663.247C1272.88 676.172 1280.55 689.458 1293.48 692.922C1306.41 696.385 1319.7 688.714 1323.17 675.789C1326.63 662.863 1318.96 649.577 1306.03 646.114C1293.1 642.65 1279.81 650.321 1276.35 663.247Z" fill="#4FD1C5"/>
<path d="M1364.37 969.924C1360.91 982.85 1368.58 996.136 1381.51 999.599C1394.44 1003.06 1407.73 995.392 1411.19 982.466C1414.66 969.541 1406.98 956.255 1394.06 952.791C1381.13 949.328 1367.84 956.999 1364.37 969.924Z" fill="#4FD1C5"/>
<path d="M1846.15 742.987C1842.69 755.912 1850.36 769.198 1863.29 772.662C1876.22 776.125 1889.51 768.455 1892.97 755.529C1896.44 742.603 1888.77 729.317 1875.84 725.854C1862.91 722.391 1849.62 730.061 1846.15 742.987Z" fill="#4FD1C5"/>
<path d="M2719.55 1276.83C2717.28 1285.32 2722.32 1294.05 2730.81 1296.33C2739.31 1298.6 2748.04 1293.56 2750.32 1285.07C2752.59 1276.58 2747.55 1267.85 2739.05 1265.57C2730.56 1263.3 2721.83 1268.34 2719.55 1276.83Z" fill="#4FD1C5"/>
<path d="M2726.27 1663C2722.81 1675.92 2730.48 1689.21 2743.41 1692.67C2756.34 1696.13 2769.63 1688.46 2773.09 1675.54C2776.56 1662.61 2768.89 1649.33 2755.96 1645.86C2743.03 1642.4 2729.74 1650.07 2726.27 1663Z" fill="#4FD1C5"/>
<path d="M2917.39 1520.81C2913.92 1533.73 2921.59 1547.02 2934.52 1550.48C2947.45 1553.95 2960.74 1546.28 2964.21 1533.35C2967.67 1520.43 2960 1507.14 2947.07 1503.68C2934.14 1500.21 2920.85 1507.88 2917.39 1520.81Z" fill="#4FD1C5"/>
<path d="M2847.38 1958.92L2784.84 1983.36L2788.8 1916.35L2851.32 1891.93L2847.38 1958.92V1958.92Z" stroke="#4FD1C5" stroke-width="4.267" stroke-linecap="round" stroke-linejoin="round"/>
<path fill-rule="evenodd" clip-rule="evenodd" d="M1471.11 739.712V569.546C1471.11 551.919 1485.36 537.643 1502.96 537.643H1694.04C1711.63 537.643 1725.88 551.919 1725.88 569.546V739.712C1725.89 745.398 1724.37 750.982 1721.49 755.885C1718.61 760.788 1714.47 764.832 1709.5 767.598L1613.96 820.767C1609.23 823.403 1603.91 824.786 1598.49 824.786C1593.08 824.786 1587.75 823.403 1583.02 820.767L1487.48 767.598C1482.52 764.826 1478.38 760.78 1475.51 755.878C1472.63 750.976 1471.11 745.396 1471.11 739.712V739.712Z" fill="#4FD1C5"/>
<path d="M1545.54 726.529H1651.46M1545.54 678.354H1651.46H1545.54ZM1545.54 628.744H1651.46H1545.54Z" stroke="white" stroke-width="3.682" stroke-linecap="round" stroke-linejoin="round"/>
<path d="M2996.67 1243.63L2915.74 1324.54C2912.79 1327.48 2912.79 1332.26 2915.74 1335.21C2918.69 1338.15 2923.47 1338.15 2926.41 1335.21L3007.34 1254.3C3010.29 1251.36 3010.29 1246.58 3007.34 1243.63C3004.39 1240.69 2999.61 1240.69 2996.67 1243.63Z" fill="#4FD1C5"/>
<path d="M2988.74 1301.56L2965.41 1324.89C2962.46 1327.83 2962.46 1332.61 2965.41 1335.56C2968.35 1338.5 2973.13 1338.5 2976.08 1335.56L2999.42 1312.23C3002.36 1309.28 3002.36 1304.5 2999.42 1301.56C2996.47 1298.61 2991.69 1298.61 2988.74 1301.56Z" fill="#4FD1C5"/>
<path d="M3381.56 1000.09C3381.56 1000.09 3313.3 981.771 3289.76 1138.23C3266.23 1294.68 3266.06 1380.38 3266.06 1380.38C3266.06 1380.38 3257.42 1414.41 3232.04 1402.49C3206.67 1390.58 3162.99 1347.45 3133.36 1367.7C3102.66 1388.71 3104.14 1430.29 3129.16 1483.8C3154.19 1537.31 3204.7 1656.44 3209.23 1667.27C3213.7 1677.84 3212.78 1695.98 3194.19 1690.62C3175.6 1685.26 3056.38 1617.46 3027.61 1675.92C2998.78 1734.4 3093.01 1871.96 3103.01 1887.17C3113.01 1902.39 3112.16 1910.65 3105.61 1917.44C3099.06 1924.22 3061.11 1897.65 3026.43 1879.72C2991.75 1861.8 2948.36 1847.16 2934.57 1882.29C2920.78 1917.42 2951.47 2033.97 3121.88 2183.04L3205.36 2246.94L3303.54 2208.05C3508.57 2112.04 3570.38 2008.53 3566.85 1970.97C3563.32 1933.41 3517.59 1935.45 3479.28 1943.06C3440.96 1950.67 3397.14 1965.68 3392.73 1957.33C3388.31 1948.99 3389.74 1940.85 3403.57 1928.98C3417.4 1917.12 3546.04 1811.08 3534.56 1746.87C3523.08 1682.73 3389.73 1714.85 3370.39 1714.79C3351.06 1714.8 3355.25 1697.14 3362.45 1688.2C3369.8 1679.09 3451.41 1578.58 3490.25 1534.09C3529.11 1489.67 3542.04 1450.08 3518.36 1421.38C3495.56 1393.68 3441.59 1423.1 3413.92 1427.52C3386.24 1431.94 3387.38 1396.81 3387.38 1396.81C3387.38 1396.81 3411.02 1314.41 3431.73 1157.55C3452.43 1000.7 3380.04 999.749 3380.04 999.749" fill="#4FD1C5"/>
<path d="M3203.61 2224.96C3219.23 2109.82 3242.18 1950.93 3268.19 1775.51C3294.14 1600.17 3317.46 1441.39 3333.78 1326.33C3341.87 1268.91 3348.39 1222.4 3352.93 1190.09C3355.19 1174.12 3356.95 1161.67 3358.18 1153.04C3358.78 1148.93 3359.28 1145.74 3359.61 1143.4C3359.99 1141.26 3360.23 1140.11 3360.23 1140.11C3360.23 1140.11 3360.18 1141.21 3359.96 1143.44C3359.7 1145.76 3359.34 1148.99 3358.88 1153.13C3357.8 1161.78 3356.24 1174.24 3354.28 1190.28C3350.26 1222.52 3344.11 1269.13 3336.26 1326.69C3320.64 1441.83 3297.68 1600.65 3271.73 1776.05C3245.79 1951.46 3222.41 2110.26 3206.16 2225.3" fill="white"/>
<path d="M3192.06 1430.55C3192.3 1430.42 3193.94 1432.5 3196.91 1436.47C3199.87 1440.37 3203.93 1446.15 3208.85 1453.34C3218.71 1467.77 3231.82 1488 3245.87 1510.71C3259.54 1533.03 3271.97 1553.25 3281.53 1568.85C3285.82 1575.73 3289.43 1581.56 3292.43 1586.41C3295.03 1590.54 3296.35 1592.91 3296.11 1593.04C3295.87 1593.17 3294.16 1591.11 3291.21 1587.21C3288.32 1583.29 3284.26 1577.51 3279.38 1570.24C3269.64 1555.71 3256.8 1535.26 3242.84 1512.61L3206.79 1454.77C3202.49 1447.9 3198.83 1442.08 3195.83 1437.24C3193.2 1433.04 3191.89 1430.67 3192.06 1430.55ZM3305.83 1591.73C3305.27 1590.93 3345.84 1562.03 3396.49 1527.3C3447.12 1492.51 3488.67 1464.98 3489.23 1465.79C3489.78 1466.59 3449.19 1495.43 3398.56 1530.22C3347.87 1565.02 3306.38 1592.53 3305.83 1591.73ZM3253.83 1859.29C3253.76 1859.04 3256.36 1858.07 3261.02 1856.42C3266.45 1854.62 3273.15 1852.42 3281.01 1849.77C3297.88 1844.16 3321.22 1836.27 3346.62 1826.68C3372.03 1817.15 3394.76 1807.73 3411.2 1800.81C3418.85 1797.6 3425.33 1794.85 3430.64 1792.6C3435.24 1790.69 3437.85 1789.79 3437.97 1789.96C3438.1 1790.2 3435.67 1791.53 3431.26 1793.87C3424.98 1797.09 3418.64 1800.17 3412.23 1803.12C3391.14 1812.88 3369.68 1821.85 3347.92 1830.01C3326.15 1838.18 3304.09 1845.57 3281.78 1852.15C3273.2 1854.65 3266.22 1856.52 3261.44 1857.73C3256.6 1858.96 3253.89 1859.55 3253.83 1859.29V1859.29ZM3118.87 1736.11C3119.02 1735.93 3121.06 1737.43 3124.69 1740.33C3128.27 1743.25 3133.36 1747.53 3139.62 1752.86C3155.9 1766.83 3172.04 1780.94 3188.06 1795.2C3204.11 1809.44 3220.03 1823.81 3235.82 1838.33C3240.62 1842.73 3245.36 1847.2 3250.03 1851.74C3253.34 1854.93 3255.08 1856.85 3254.92 1857.02C3254.76 1857.2 3252.73 1855.71 3249.09 1852.8C3245.52 1849.88 3240.42 1845.6 3234.16 1840.27C3217.89 1826.31 3201.74 1812.19 3185.73 1797.93C3166.97 1781.26 3150.08 1765.98 3138.03 1754.79C3133.23 1750.39 3128.49 1745.92 3123.82 1741.38C3120.45 1738.2 3118.65 1736.3 3118.87 1736.11V1736.11ZM3042.94 1966.47C3043.1 1966.29 3045.73 1968.24 3050.33 1971.97C3055.41 1976.19 3061.88 1981.53 3069.53 1987.99C3085.64 2001.63 3107.74 2020.61 3132 2041.8C3156.26 2063 3178.11 2082.32 3193.8 2096.42C3201.18 2103.14 3207.4 2108.83 3212.27 2113.31C3216.55 2117.33 3218.88 2119.7 3218.73 2119.88C3218.57 2120.06 3215.94 2118.11 3211.33 2114.37C3206.25 2110.16 3199.79 2104.81 3192.14 2098.36C3171.18 2080.57 3150.36 2062.63 3129.67 2044.54C3108.95 2026.47 3088.35 2008.27 3067.87 1989.93C3060.49 1983.2 3054.27 1977.52 3049.4 1973.04C3045.05 1969.03 3042.78 1966.65 3042.94 1966.47ZM3215.52 2115.02C3215.46 2114.76 3218.7 2113.42 3224.56 2111.17C3231.12 2108.73 3239.54 2105.59 3249.63 2101.87C3270.79 2093.96 3300.04 2082.99 3331.93 2069.96C3359.19 2058.84 3386.26 2047.28 3413.14 2035.28C3421.3 2031.69 3429.45 2028.08 3437.59 2024.44C3443.39 2021.93 3446.63 2020.59 3446.76 2020.83C3446.89 2021.06 3443.81 2022.77 3438.2 2025.7C3432.59 2028.63 3424.37 2032.74 3414.17 2037.59C3387.56 2050.27 3360.59 2062.17 3333.29 2073.27C3305.99 2084.39 3278.37 2094.71 3250.47 2104.23C3242.01 2107.11 3233.52 2109.86 3224.98 2112.48C3219 2114.29 3215.64 2115.19 3215.52 2115.02V2115.02Z" fill="white"/>
<path d="M3173.04 1137.49H3173.62C3177.06 1184.22 3213.33 1184.94 3213.33 1184.94C3213.33 1184.94 3173.33 1185.7 3173.33 1239.69C3173.33 1185.7 3133.33 1184.94 3133.33 1184.94C3133.33 1184.94 3169.59 1184.22 3173.04 1137.49V1137.49Z" fill="#4FD1C5"/>
<path d="M2038.66 1135.21L1971.43 1380.92L1995.42 1353.32C1986.55 1358.05 1976.26 1361.67 1964.87 1364.24C1953.48 1366.81 1941.1 1368.28 1928.14 1368.96C1915.17 1369.64 1901.68 1369.54 1887.83 1368.96C1874.03 1368.38 1859.91 1367.33 1845.58 1366.13H1845.53C1835.38 1365.26 1825.3 1368.47 1817.51 1375.03C1809.71 1381.59 1804.84 1390.97 1803.96 1401.12C1802.24 1421.27 1816.56 1439.11 1836.19 1442.31C1850.99 1444.67 1866 1446.87 1881.43 1448.66C1896.86 1450.44 1912.65 1451.75 1929.03 1452.12C1945.4 1452.49 1962.36 1451.86 1979.88 1449.34C1997.36 1446.82 2015.52 1442.26 2033.26 1434.6C2038.65 1432.27 2043.5 1428.84 2047.48 1424.52C2051.45 1420.2 2054.48 1415.09 2056.35 1409.52L2057.19 1406.95L2137.85 1165.28C2146.93 1138.1 2132.24 1108.77 2105.05 1099.69C2077.87 1090.62 2048.53 1105.31 2039.45 1132.49C2039.19 1133.38 2038.87 1134.37 2038.66 1135.21V1135.21Z" fill="#FEB2B2"/>
<path d="M2387.21 1434.36C2387.21 1434.36 2389.81 1470.75 2363.74 1480.36L2092.54 1490.8C2092.54 1490.8 2074.32 1473.12 2077.9 1430.74C2077.9 1430.64 2193.16 1313.08 2387.21 1434.36Z" fill="#6A66EA"/>
<path d="M2188.08 1472.74C2188.97 1479.67 2192.01 1484.97 2194.9 1484.54C2197.73 1484.18 2199.36 1478.25 2198.47 1471.38C2197.57 1464.45 2194.53 1459.15 2191.64 1459.57C2188.76 1459.94 2187.18 1465.87 2188.08 1472.74Z" fill="#F56565"/>
<path d="M2072.77 1386.41V1386.78C2072.88 1387.8 2072.93 1388.86 2072.99 1389.98C2073.25 1394.25 2073.47 1399.37 2073.63 1405.18C2073.79 1409.87 2073.84 1414.99 2073.89 1420.48C2073.89 1424.59 2073.95 1428.85 2073.95 1433.28C2151.07 1399.95 2308.77 1423.63 2372.25 1435.2C2371.62 1432 2371.03 1428.85 2370.44 1425.76C2370.02 1423.47 2369.64 1421.23 2369.22 1418.99C2365.01 1394.62 2362.77 1372.71 2362.03 1353.14L2361.87 1347.92C2361.23 1318.86 2364.37 1277.54 2370.76 1234.99C2371.19 1232.06 2371.67 1229.12 2372.09 1226.24L2373.05 1220.49C2375.37 1206.36 2378.09 1192.29 2381.2 1178.31C2382.27 1173.62 2383.17 1168.88 2383.92 1164.18C2384.77 1158.96 2385.41 1153.73 2385.89 1148.56C2387.06 1135.45 2386.96 1122.65 2385.25 1110.76C2382.21 1089.59 2373.96 1071.36 2358.68 1059.63C2350.04 1053.02 2339.13 1048.43 2325.6 1046.62C2321.18 1046.03 2316.81 1045.45 2312.6 1044.97C2299.34 1043.37 2287.15 1042.25 2277.24 1041.45C2273.99 1041.18 2270.96 1040.97 2268.24 1040.75C2261.32 1040.27 2256.2 1039.95 2253.7 1039.85C2253.09 1039.82 2252.49 1039.79 2251.89 1039.74L2133.49 1072.53L2122.2 1075.62C2117.4 1077.12 2112.88 1078.56 2108.67 1079.94C2098.23 1083.41 2089.34 1086.72 2081.67 1089.96C2072.19 1094.02 2064.63 1097.96 2058.66 1102.12C2032.56 1120.2 2036.29 1141.04 2036.4 1182.1V1184.93C2036.4 1188.02 2036.34 1191.11 2036.24 1194.2C2036.13 1198.09 2035.92 1201.93 2035.6 1205.77C2035.07 1213.5 2039.66 1221.05 2038.7 1228.62C2051.11 1281.9 2054.22 1299.68 2058.66 1333C2062.51 1361.88 2061.75 1378.31 2069.84 1384.28C2071.66 1385.67 2072.77 1386.41 2072.77 1386.41Z" fill="#6A66EA"/>
<path d="M2249.32 1045.55C2249.32 1045.55 2238.88 1085.05 2199.41 1096.02C2149.24 1109.92 2141.68 1093.08 2141.68 1093.08C2142.93 1085.93 2143.39 1078.66 2143.04 1071.41C2142.92 1068.52 2142.69 1065.63 2142.36 1062.76C2141.47 1054.67 2139.79 1045.86 2137.43 1035.79C2136.91 1033.43 2136.28 1030.96 2135.65 1028.44L2135.6 1028.13C2169.92 1015.22 2196.84 995.858 2213.32 967.211L2218.2 963.381L2221.51 960.76L2222.45 962.75L2222.61 969.415C2223.29 1000.74 2228.59 1019.26 2249.32 1045.55V1045.55Z" fill="#FEB2B2"/>
<path d="M2012.79 2026.07C2013.79 2026.07 2014.78 2025.91 2015.78 2025.54L2367.93 1898.62C2370.08 1897.77 2371.82 1896.12 2372.78 1894.01C2373.73 1891.9 2373.83 1889.5 2373.04 1887.32C2372.26 1885.14 2370.65 1883.36 2368.57 1882.34C2366.49 1881.33 2364.09 1881.16 2361.89 1881.88L2009.74 2008.8C2007.77 2009.52 2006.11 2010.9 2005.06 2012.71C2004.01 2014.53 2003.64 2016.65 2004 2018.72C2004.37 2020.78 2005.45 2022.65 2007.05 2023.99C2008.66 2025.34 2010.69 2026.07 2012.79 2026.07V2026.07Z" fill="#6A66EA"/>
<path d="M2379.52 2026.07C2381.62 2026.06 2383.64 2025.32 2385.24 2023.97C2386.84 2022.62 2387.91 2020.76 2388.27 2018.7C2388.62 2016.64 2388.24 2014.52 2387.19 2012.71C2386.14 2010.9 2384.49 2009.52 2382.52 2008.81L2026.17 1879.79C2023.97 1879.06 2021.57 1879.21 2019.48 1880.22C2017.4 1881.23 2015.78 1883.02 2014.99 1885.2C2014.2 1887.38 2014.29 1889.78 2015.24 1891.9C2016.19 1894.01 2017.93 1895.67 2020.08 1896.53L2376.43 2025.54C2377.53 2025.91 2378.53 2026.07 2379.52 2026.07V2026.07Z" fill="#6A66EA"/>
<path d="M1981.46 2252.89C1985.14 2252.88 1988.68 2251.54 1991.45 2249.12C1994.22 2246.7 1996.02 2243.36 1996.52 2239.72L2060.12 1764.94H2326.26L2388.87 2239.72C2389.12 2241.7 2389.77 2243.6 2390.77 2245.33C2391.77 2247.06 2393.09 2248.58 2394.68 2249.79C2396.26 2251.01 2398.07 2251.9 2400 2252.41C2401.93 2252.92 2403.95 2253.05 2405.92 2252.78C2407.9 2252.52 2409.81 2251.88 2411.54 2250.88C2413.27 2249.88 2414.79 2248.55 2416 2246.97C2417.21 2245.39 2418.1 2243.58 2418.62 2241.65C2419.13 2239.72 2419.26 2237.71 2418.99 2235.73L2354.65 1747.73C2354.17 1744.07 2352.37 1740.72 2349.6 1738.28C2346.83 1735.85 2343.27 1734.51 2339.59 1734.5H2046.8C2043.11 1734.5 2039.56 1735.83 2036.79 1738.25C2034.01 1740.68 2032.22 1744.03 2031.73 1747.67L1966.34 2235.68C1965.81 2239.68 1966.89 2243.72 1969.34 2246.93C1971.79 2250.14 1975.41 2252.24 1979.41 2252.78C1980.09 2252.89 1980.77 2252.89 1981.46 2252.89V2252.89Z" fill="#6A66EA"/>
<path d="M2131.6 1749.72H2321.74C2381.99 1749.72 2446.49 1716.77 2455.73 1657.22C2467.39 1582.02 2471.4 1505.83 2467.69 1429.82C2463.81 1349.81 2425.6 1275.41 2362.68 1225.83C2362.68 1225.83 2324.68 1391.31 2372.44 1619.75C2354.28 1706.59 2131.6 1749.72 2131.6 1749.72Z" fill="#6A66EA"/>
<path d="M1691.66 2049.47H1776.57C1776.57 2049.47 1796.25 1955.24 1802.81 1902.35C1809.42 1849.51 1812.84 1724.22 1812.84 1724.22C1812.84 1724.22 1880.54 1746.2 2022.24 1737.91C2336.18 1719.6 2217.15 1489.01 2217.15 1489.01C2206.55 1503.64 2141.58 1493.52 2097.18 1500.5C1960.88 1513.56 1842.64 1567.08 1771.74 1597.67C1754.64 1605.01 1739.47 1612.83 1726.19 1621.01C1709.08 1631.56 1698.37 1663.51 1691.92 1705.59C1672.5 1831.99 1691.66 2049.47 1691.66 2049.47V2049.47Z" fill="#4E5C8F"/>
<path d="M1694.02 2158.24H1753.95L1765.5 2087.93L1771.8 2049.47H1697.32L1696.17 2087.93L1694.02 2158.24V2158.24Z" fill="#FEB2B2"/>
<path d="M1694.02 2158.23H1753.95L1762.56 2105.87L1765.5 2087.93H1696.17L1695.59 2106.55L1694.02 2158.23V2158.23Z" fill="url(#paint3_linear_101_2)"/>
<path d="M1546.08 2252.89H1772.84C1774.52 2249.85 1775.47 2245.49 1775.84 2240.3C1777.25 2221.09 1771.16 2190.51 1768.12 2171.2C1767.76 2168.94 1767.44 2166.84 1767.18 2164.95C1766.76 2161.7 1766.49 2159.02 1766.49 2157.08C1766.49 2141.34 1752.53 2144.02 1752.53 2144.02C1729.6 2166.53 1703.62 2132.79 1688.46 2143.86C1688.46 2143.86 1687.83 2144.33 1686.46 2145.38C1685.2 2146.38 1683.26 2147.95 1680.58 2150.21C1676.7 2153.46 1671.29 2158.13 1663.95 2164.74C1645.95 2180.95 1615.35 2191.61 1589.27 2202.52C1585.96 2203.88 1582.86 2205.3 1579.98 2206.66C1577.83 2207.71 1575.78 2208.76 1573.84 2209.81C1552.53 2221.3 1545.76 2232.32 1544.24 2240.3C1542.72 2248.01 1546.08 2252.89 1546.08 2252.89V2252.89Z" fill="#4E5C8F"/>
<path d="M1546.08 2252.89H1772.84C1774.52 2249.85 1775.47 2245.49 1775.84 2240.3H1544.24C1542.72 2248.01 1546.08 2252.89 1546.08 2252.89Z" fill="#4E5C8F"/>
<path d="M2263.31 1108.05L2187.93 1385.94L2214.8 1354.73C2204.86 1360.08 2193.33 1364.14 2180.58 1367.07C2167.83 1369.95 2153.91 1371.64 2139.42 1372.36C2124.89 1373.14 2109.74 1372.98 2094.24 1372.36C2078.73 1371.7 2062.92 1370.56 2046.85 1369.18H2046.75C2023.03 1367.12 2002.17 1384.86 2000.13 1408.76C1998.19 1431.54 2014.26 1451.74 2036.29 1455.34C2052.87 1458.02 2069.75 1460.54 2087.04 1462.54C2104.33 1464.55 2122.08 1466.09 2140.44 1466.5C2158.8 1466.91 2177.83 1466.19 2197.47 1463.31C2217.1 1460.43 2237.45 1455.29 2257.34 1446.66C2270.09 1441.1 2279.12 1430.56 2283.25 1418.32L2284.22 1415.45L2374.6 1142.09C2384.75 1111.34 2368.33 1078.18 2337.83 1067.9C2307.38 1057.66 2274.43 1074.22 2264.23 1104.96C2263.92 1105.94 2263.56 1107.12 2263.31 1108.05V1108.05Z" fill="#FEB2B2"/>
<path d="M1839.55 2049.73H1924.46C1924.46 2049.73 1944.14 1955.5 1950.7 1902.61C1957.32 1849.77 1960.73 1724.48 1960.73 1724.48C1960.73 1724.48 2028.43 1746.47 2170.12 1738.17C2484.07 1719.86 2365.04 1489.27 2365.04 1489.27C2354.44 1503.9 2274.88 1524.11 2230.48 1531.08C2094.19 1544.15 1990.54 1567.29 1919.64 1597.93C1902.52 1605.27 1887.36 1613.09 1874.08 1621.27C1856.97 1631.82 1846.27 1663.77 1839.81 1705.85C1820.34 1832.25 1839.55 2049.73 1839.55 2049.73V2049.73Z" fill="#4E5C8F"/>
<path d="M1841.86 2158.54H1901.84L1913.39 2088.24L1919.69 2049.73H1845.22L1844.01 2088.24L1841.86 2158.54Z" fill="#FEB2B2"/>
<path d="M1841.86 2158.55H1901.84L1910.4 2106.18L1913.39 2088.24H1844.01L1843.43 2106.87L1841.86 2158.55V2158.55Z" fill="url(#paint4_linear_101_2)"/>
<path d="M1693.92 2253.2H1920.68C1922.36 2250.15 1923.31 2245.8 1923.68 2240.6C1925.09 2221.4 1919 2190.81 1915.96 2171.51C1915.6 2169.25 1915.28 2167.15 1915.02 2165.26C1914.6 2162.01 1914.33 2159.33 1914.33 2157.39C1914.33 2141.65 1900.37 2144.33 1900.37 2144.33C1877.44 2166.84 1851.46 2133.1 1836.29 2144.17C1836.29 2144.17 1835.67 2144.64 1834.3 2145.69C1833.04 2146.69 1831.1 2148.26 1828.42 2150.52C1824.54 2153.77 1819.13 2158.44 1811.79 2165.05C1793.79 2181.26 1763.19 2191.91 1737.11 2202.83C1733.8 2204.19 1730.7 2205.61 1727.82 2206.97C1725.67 2208.02 1723.62 2209.07 1721.68 2210.12C1700.37 2221.61 1693.6 2232.63 1692.08 2240.6C1690.61 2248.26 1693.92 2253.2 1693.92 2253.2V2253.2Z" fill="#4E5C8F"/>
<path d="M1693.91 2253.2H1920.68C1922.36 2250.15 1923.31 2245.8 1923.68 2240.6H1692.08C1690.61 2248.26 1693.91 2253.2 1693.91 2253.2Z" fill="#4E5C8F"/>
<path d="M1375.43 1486.3V1509.84C1375.43 1523.41 1383.76 1534.37 1394.12 1534.37H2692.97C2703.28 1534.37 2711.66 1523.41 2711.66 1509.84V1486.3C2711.66 1472.78 2703.33 1461.76 2692.97 1461.76H1394.12C1383.82 1461.83 1375.43 1472.78 1375.43 1486.3V1486.3Z" fill="#4FD1C5"/>
<path d="M1441.84 1567.85H2610.97C2616.21 1567.85 2620.47 1564.39 2620.47 1560.09V1519.21H1432.4V1560.09C1432.4 1564.39 1436.65 1567.85 1441.84 1567.85ZM2674.16 2259.13L2508.52 1572.69H2566.72L2732.3 2259.13H2674.16V2259.13ZM1539.62 2259.13L1705.25 1572.69H1647.1L1481.47 2259.13H1539.62V2259.13Z" fill="#4FD1C5"/>
<path d="M1532.59 1102.21L1593.47 1359.62L1595.09 1366.39L1599.19 1383.7C1600.04 1387.35 1602.11 1390.59 1605.04 1392.92C1607.97 1395.24 1611.61 1396.5 1615.35 1396.5H2025.49C2036.2 1396.5 2044.17 1386.48 2041.71 1376.04L1975.11 1094.55C1974.25 1090.91 1972.19 1087.66 1969.25 1085.34C1966.32 1083.02 1962.68 1081.75 1958.94 1081.75H1548.8C1538.04 1081.8 1530.12 1091.82 1532.59 1102.21V1102.21Z" fill="#6A66EA"/>
<path d="M1731.86 1250.17C1733.8 1267.91 1749.75 1282.23 1767.49 1282.23C1785.23 1282.23 1797.98 1267.86 1796.04 1250.17C1794.1 1232.44 1778.15 1218.12 1760.41 1218.12C1742.67 1218.12 1729.92 1232.44 1731.86 1250.17V1250.17Z" fill="white"/>
<path d="M1942.63 1081.8L2013.53 1396.55H2025.49C2036.2 1396.55 2044.12 1386.53 2041.66 1376.09L1975.06 1094.6C1974.2 1090.96 1972.14 1087.71 1969.2 1085.39C1966.27 1083.07 1962.64 1081.8 1958.89 1081.8H1942.63V1081.8ZM1824.12 1394L1835.36 1456.92H1798.2L1786.95 1394H1824.12Z" fill="#4E5C8F"/>
<path d="M1887.03 1451.25L1878.63 1439.44C1877.14 1437.36 1875.18 1435.67 1872.91 1434.5C1870.64 1433.34 1868.12 1432.73 1865.56 1432.73H1752.89C1749.96 1432.72 1747.09 1433.52 1744.59 1435.04C1742.09 1436.55 1740.06 1438.73 1738.72 1441.33L1733.05 1452.19C1730.37 1457.28 1734.1 1463.31 1739.82 1463.31H1880.79C1886.98 1463.31 1890.6 1456.29 1887.03 1451.25V1451.25Z" fill="#4E5C8F"/>
<path d="M2117.8 1037.55C2117.8 1037.55 2231.37 1026.49 2223.39 955.881C2215.41 885.272 2224.68 836.289 2151.84 840.372C2079 844.451 2067.95 872.977 2064.89 897.189C2061.83 921.405 2088.06 1038.6 2117.8 1037.55Z" fill="#FEB2B2"/>
<path d="M2022.22 835.102C2022.22 835.102 2033.93 900.632 2056.25 903.022C2078.56 905.408 2070.56 877.855 2070.56 877.855L2064.55 846.774L2022.22 835.102Z" fill="#4E5C8F"/>
<path d="M2215.25 814.076C2212.26 789.255 2186.17 782.279 2186.17 782.279C2160 772.939 2108.35 782.95 2055.7 799.986C2043.3 803.98 2026.79 797.773 2018.58 804.709C2008.65 813.094 2022.4 845.819 2022.4 845.819C2049.08 906.666 2123.46 879.037 2145.7 869.106C2152.7 884.751 2154.12 907.279 2168.78 917.645C2177.17 923.528 2190.61 922.453 2204.15 918.863C2206.1 921.889 2212.73 924.15 2214.42 928.42C2220.14 942.71 2221.67 965.74 2223.21 983.442L2229.4 979.648C2229.78 974.733 2281.76 809.917 2215.25 814.076V814.076Z" fill="#4E5C8F"/>
<path d="M2527.13 1016.58V1073.17M2916.55 959.559V1073.17V959.559ZM3014.03 845.5V1073.17V845.5ZM2819.07 902.514V1073.17V902.514ZM2722.09 959.559V1073.17V959.559ZM2624.61 845.5V1073.17V845.5Z" stroke="#9F7AEA" stroke-width="36.547" stroke-linecap="round" stroke-linejoin="round"/>
<path d="M2714.6 1017.59C2720.42 1017.59 2725.13 1022.31 2725.13 1028.13C2725.13 1033.95 2720.42 1038.66 2714.6 1038.66C2708.79 1038.66 2704.08 1033.95 2704.08 1028.13C2704.08 1022.31 2708.79 1017.59 2714.6 1017.59Z" fill="#9F7AEA"/>
<path d="M3092.65 1059.23H3103.62M3158.49 954.23H3092.65H3158.49ZM3158.49 993.326H3092.65H3158.49ZM3092.65 921.279H3136.54H3092.65ZM3092.65 1026.28H3136.54H3092.65ZM3092.65 888.326H3103.62H3092.65Z" stroke="#A3BFFA" stroke-width="12.945" stroke-linecap="round" stroke-linejoin="round"/>
<path d="M2913.83 828.134L2806.54 785.378C2804.9 784.724 2803.14 784.399 2801.38 784.423C2799.61 784.447 2797.87 784.82 2796.24 785.52L2690.17 831.231M3137.51 825.288L3030.22 782.533C3028.58 781.878 3026.82 781.553 3025.06 781.577C3023.29 781.601 3021.55 781.974 3019.92 782.673L2913.85 828.384L3137.51 825.288Z" stroke="#A3BFFA" stroke-width="4" stroke-linecap="round" stroke-linejoin="round"/>
<path d="M2805.95 772.998C2812.45 775.589 2815.62 782.966 2813.04 789.475C2810.45 795.984 2803.08 799.16 2796.57 796.569C2790.07 793.978 2786.9 786.6 2789.49 780.091C2792.08 773.582 2799.45 770.407 2805.95 772.998Z" fill="#A3BFFA"/>
<path d="M2693.81 820.293C2700.31 822.884 2703.49 830.261 2700.9 836.77C2698.31 843.279 2690.94 846.455 2684.43 843.864C2677.93 841.273 2674.76 833.895 2677.35 827.386C2679.94 820.877 2687.31 817.701 2693.81 820.293Z" fill="#A3BFFA"/>
<path d="M2917.49 817.449C2924 820.04 2927.17 827.417 2924.58 833.926C2921.99 840.435 2914.62 843.611 2908.12 841.02C2901.62 838.429 2898.44 831.052 2901.03 824.543C2903.62 818.034 2910.99 814.858 2917.49 817.449Z" fill="#A3BFFA"/>
<path d="M3029.14 771.394C3035.64 773.986 3038.82 781.363 3036.23 787.872C3033.64 794.381 3026.27 797.557 3019.77 794.965C3013.26 792.374 3010.09 784.997 3012.68 778.488C3015.27 771.979 3022.64 768.803 3029.14 771.394Z" fill="#A3BFFA"/>
<path d="M3142.04 816.297C3148.54 818.888 3151.71 826.265 3149.12 832.774C3146.53 839.283 3139.16 842.459 3132.66 839.868C3126.16 837.276 3122.98 829.899 3125.57 823.39C3128.16 816.881 3135.53 813.705 3142.04 816.297Z" fill="#A3BFFA"/>
<path fill-rule="evenodd" clip-rule="evenodd" d="M2492.24 913.048H2495.94C2496.84 913.048 2497.56 913.776 2497.56 914.665V918.369C2497.56 919.265 2496.83 919.986 2495.94 919.986H2492.24C2491.81 919.984 2491.4 919.813 2491.1 919.511C2490.8 919.208 2490.63 918.797 2490.62 918.369V914.665C2490.62 914.452 2490.67 914.242 2490.75 914.045C2490.83 913.849 2490.95 913.67 2491.1 913.52C2491.25 913.37 2491.43 913.251 2491.62 913.17C2491.82 913.089 2492.03 913.047 2492.24 913.048V913.048ZM2505.07 913.048H2508.77C2509.66 913.048 2510.39 913.776 2510.39 914.665V918.369C2510.39 919.265 2509.66 919.986 2508.77 919.986H2505.07C2504.64 919.984 2504.23 919.813 2503.93 919.511C2503.63 919.208 2503.46 918.797 2503.46 918.369V914.665C2503.46 913.776 2504.18 913.048 2505.07 913.048ZM2517.91 913.048H2521.61C2522.5 913.048 2523.23 913.776 2523.23 914.665V918.369C2523.23 919.265 2522.5 919.986 2521.61 919.986H2517.91C2517.48 919.984 2517.07 919.813 2516.77 919.511C2516.47 919.208 2516.3 918.797 2516.3 918.369V914.665C2516.3 914.452 2516.34 914.242 2516.42 914.045C2516.5 913.849 2516.62 913.67 2516.77 913.52C2516.92 913.37 2517.1 913.251 2517.29 913.17C2517.49 913.089 2517.7 913.047 2517.91 913.048ZM2530.75 913.048H2534.45C2535.33 913.048 2536.06 913.776 2536.06 914.665V918.369C2536.06 919.265 2535.33 919.986 2534.45 919.986H2530.75C2530.32 919.986 2529.9 919.816 2529.6 919.513C2529.3 919.21 2529.12 918.798 2529.12 918.369V914.665C2529.13 914.236 2529.3 913.826 2529.6 913.523C2529.91 913.221 2530.32 913.05 2530.75 913.048V913.048ZM2543.58 913.048H2547.28C2548.17 913.048 2548.9 913.776 2548.9 914.665V918.369C2548.9 919.265 2548.17 919.986 2547.28 919.986H2543.58C2543.15 919.984 2542.74 919.813 2542.44 919.511C2542.14 919.208 2541.96 918.797 2541.96 918.369V914.665C2541.96 913.776 2542.69 913.048 2543.58 913.048ZM2505.54 927.054H2509.24C2510.13 927.054 2510.86 927.783 2510.86 928.671V932.383C2510.86 933.271 2510.13 934 2509.24 934H2505.54C2505.11 934 2504.7 933.829 2504.4 933.526C2504.1 933.223 2503.93 932.812 2503.93 932.383V928.678C2503.93 928.465 2503.97 928.253 2504.05 928.056C2504.13 927.859 2504.25 927.68 2504.4 927.529C2504.55 927.378 2504.73 927.259 2504.92 927.177C2505.12 927.095 2505.33 927.053 2505.54 927.054V927.054ZM2518.38 927.054H2522.08C2522.96 927.054 2523.69 927.783 2523.69 928.671V932.383C2523.69 933.271 2522.96 934 2522.08 934H2518.38C2517.95 933.998 2517.54 933.827 2517.23 933.525C2516.93 933.222 2516.76 932.811 2516.76 932.383V928.678C2516.76 928.465 2516.8 928.253 2516.88 928.056C2516.96 927.859 2517.08 927.68 2517.23 927.529C2517.38 927.378 2517.56 927.258 2517.76 927.177C2517.95 927.095 2518.16 927.053 2518.38 927.054V927.054ZM2531.21 927.054H2534.91C2535.8 927.054 2536.53 927.783 2536.53 928.671V932.383C2536.53 933.271 2535.8 934 2534.91 934H2531.21C2530.78 933.998 2530.37 933.827 2530.07 933.524C2529.77 933.221 2529.59 932.811 2529.59 932.383V928.678C2529.59 927.783 2530.32 927.054 2531.21 927.054V927.054ZM2517.91 898H2521.61C2522.5 898 2523.23 898.729 2523.23 899.617V903.322C2523.23 904.218 2522.5 904.939 2521.61 904.939H2517.91C2517.48 904.937 2517.08 904.767 2516.77 904.464C2516.47 904.161 2516.3 903.751 2516.3 903.322V899.617C2516.3 899.405 2516.34 899.194 2516.42 898.998C2516.5 898.801 2516.62 898.623 2516.77 898.473C2516.92 898.322 2517.1 898.203 2517.29 898.122C2517.49 898.041 2517.7 898 2517.91 898ZM2530.75 898H2534.45C2535.33 898 2536.06 898.729 2536.06 899.617V903.322C2536.06 904.218 2535.33 904.939 2534.45 904.939H2530.75C2530.32 904.939 2529.9 904.769 2529.6 904.466C2529.3 904.163 2529.12 903.752 2529.12 903.322V899.617C2529.13 899.188 2529.3 898.779 2529.6 898.476C2529.91 898.174 2530.32 898.003 2530.75 898V898Z" fill="#A3BFFA"/>
<path d="M2491.26 861.699C2476.16 865.279 2460.19 852.462 2460.19 852.462C2460.19 852.462 2468.71 833.847 2483.82 830.278C2498.91 826.698 2514.88 839.504 2514.88 839.504C2514.88 839.504 2506.36 858.118 2491.26 861.699V861.699Z" fill="url(#paint5_linear_101_2)"/>
<path d="M3187.91 1033.94C3181.06 1033.94 3175.5 1039.51 3175.5 1046.37C3175.5 1053.23 3181.06 1058.8 3187.91 1058.8C3194.77 1058.8 3200.33 1053.23 3200.33 1046.37C3200.33 1039.51 3194.77 1033.94 3187.91 1033.94Z" fill="#9F7AEA"/>
<path d="M2569.92 815.162C2564.77 815.162 2560.6 810.984 2560.6 805.831C2560.6 800.678 2564.77 796.5 2569.92 796.5C2575.07 796.5 2579.25 800.678 2579.25 805.831C2579.25 810.984 2575.07 815.162 2569.92 815.162Z" fill="#9F7AEA"/>
<path d="M3079.54 745.793C3069.71 745.793 3061.75 737.818 3061.75 727.981C3061.75 718.143 3069.71 710.168 3079.54 710.168C3089.37 710.168 3097.34 718.143 3097.34 727.981C3097.34 737.818 3089.37 745.793 3079.54 745.793Z" fill="#9F7AEA"/>
<path d="M3245.06 1100.13C3240.94 1100.13 3237.61 1097.07 3237.61 1093.3C3237.61 1089.52 3240.94 1086.46 3245.06 1086.46C3249.18 1086.46 3252.51 1089.52 3252.51 1093.3C3252.51 1097.07 3249.18 1100.13 3245.06 1100.13Z" fill="#A3BFFA"/>
<path d="M2450.99 1002.01C2445.51 1002.01 2441.06 997.56 2441.06 992.07C2441.06 986.58 2445.51 982.129 2450.99 982.129C2456.48 982.129 2460.93 986.58 2460.93 992.07C2460.93 997.56 2456.48 1002.01 2450.99 1002.01Z" fill="#A3BFFA"/>
<path d="M2919.65 908.708C2916.38 908.708 2913.72 906.05 2913.72 902.771C2913.72 899.492 2916.38 896.834 2919.65 896.834C2922.93 896.834 2925.58 899.492 2925.58 902.771C2925.58 906.05 2922.93 908.708 2919.65 908.708Z" fill="#A3BFFA"/>
<path d="M2907.09 745.798C2902.41 745.798 2898.61 742 2898.61 737.315C2898.61 732.63 2902.41 728.832 2907.09 728.832C2911.77 728.832 2915.56 732.63 2915.56 737.315C2915.56 742 2911.77 745.798 2907.09 745.798Z" fill="#A3BFFA"/>
<path d="M3221.99 919.01C3221.99 923.812 3218.1 927.705 3213.3 927.705C3208.5 927.705 3204.61 923.812 3204.61 919.01C3204.61 914.207 3208.5 910.314 3213.3 910.314C3218.1 910.314 3221.99 914.207 3221.99 919.01Z" fill="#A3BFFA"/>
<path d="M3187.61 725.334H3187.84C3189.15 743.953 3202.98 744.239 3202.98 744.239C3202.98 744.239 3187.73 744.537 3187.73 766.049C3187.73 744.537 3172.47 744.239 3172.47 744.239C3172.47 744.239 3186.3 743.953 3187.61 725.334V725.334ZM2662.51 740.501H2662.66C2663.51 753.097 2672.49 753.291 2672.49 753.291C2672.49 753.291 2662.59 753.493 2662.59 768.047C2662.59 753.493 2652.68 753.291 2652.68 753.291C2652.68 753.291 2661.66 753.097 2662.51 740.501Z" fill="#A3BFFA"/>
<path fill-rule="evenodd" clip-rule="evenodd" d="M2223.76 481.179C2223.76 560.02 2159.79 623.919 2080.86 623.919C2001.93 623.919 1937.96 560.02 1937.96 481.179C1937.96 402.34 2001.93 338.439 2080.86 338.439C2159.79 338.439 2223.76 402.34 2223.76 481.179V481.179Z" fill="#9F7AEA"/>
<path fill-rule="evenodd" clip-rule="evenodd" d="M2080.86 341.481C2003.61 341.481 1941 404.023 1941 481.179C1941 558.336 2003.61 620.876 2080.86 620.876C2158.11 620.876 2220.72 558.336 2220.72 481.179C2220.72 404.023 2158.11 341.481 2080.86 341.481ZM1934.92 481.179C1934.92 400.656 2000.25 335.396 2080.86 335.396C2161.46 335.396 2226.8 400.656 2226.8 481.179C2226.8 561.703 2161.46 626.962 2080.86 626.962C2000.25 626.962 1934.92 561.703 1934.92 481.179Z" fill="#E9D8FD"/>
<path fill-rule="evenodd" clip-rule="evenodd" d="M2086.45 335.453L2087.67 478.245L2187.78 580.065L2179.93 587.777L2078.26 484.371C2077.26 483.354 2076.7 481.988 2076.68 480.562L2075.45 335.546L2086.45 335.453Z" fill="#E9D8FD"/>
<path fill-rule="evenodd" clip-rule="evenodd" d="M2209.53 412.959L2086.84 484.97L2048.83 621.772L2038.23 618.827L2076.84 479.88C2077.22 478.505 2078.12 477.332 2079.36 476.61L2203.96 403.473L2209.53 412.959Z" fill="#E9D8FD"/>
<path d="M2288.95 662.493H2458.45M2288.95 553.262H2391.02H2288.95ZM2518.64 553.336H2634H2518.64ZM2518.64 628.328H2634H2518.64ZM2288.95 586.031H2458.45H2288.95ZM2518.6 586.031H2687.52H2518.6ZM2518.6 661.024H2687.52H2518.6ZM2288.95 629.723H2391.02H2288.95Z" stroke="#A3BFFA" stroke-width="11" stroke-linecap="round" stroke-linejoin="round"/>
<path d="M2414.16 338.438H2384.27C2375.92 338.438 2369.15 345.203 2369.15 353.548V501.738C2369.15 510.084 2375.92 516.849 2384.27 516.849H2414.16C2422.52 516.849 2429.29 510.084 2429.29 501.738V353.548C2429.29 345.203 2422.52 338.438 2414.16 338.438Z" fill="#6A66EA"/>
<path d="M2592.77 338.438H2562.88C2554.53 338.438 2547.76 345.203 2547.76 353.548V501.738C2547.76 510.084 2554.53 516.849 2562.88 516.849H2592.77C2601.13 516.849 2607.9 510.084 2607.9 501.738V353.548C2607.9 345.203 2601.13 338.438 2592.77 338.438Z" fill="#6A66EA"/>
<path d="M2324.86 411.26H2294.97C2286.61 411.26 2279.84 418.025 2279.84 426.37V501.74C2279.84 510.085 2286.61 516.85 2294.97 516.85H2324.86C2333.21 516.85 2339.98 510.085 2339.98 501.74V426.37C2339.98 418.025 2333.21 411.26 2324.86 411.26Z" fill="#A3BFFA"/>
<path d="M2503.47 411.26H2473.58C2465.22 411.26 2458.45 418.025 2458.45 426.37V501.74C2458.45 510.085 2465.22 516.85 2473.58 516.85H2503.47C2511.82 516.85 2518.6 510.085 2518.6 501.74V426.37C2518.6 418.025 2511.82 411.26 2503.47 411.26Z" fill="#A3BFFA"/>
<path d="M2682.08 411.26H2652.19C2643.83 411.26 2637.06 418.025 2637.06 426.37V501.74C2637.06 510.085 2643.83 516.85 2652.19 516.85H2682.08C2690.43 516.85 2697.21 510.085 2697.21 501.74V426.37C2697.21 418.025 2690.43 411.26 2682.08 411.26Z" fill="#A3BFFA"/>
<path d="M2493.21 376.358C2477.07 384.356 2455.65 374.071 2455.65 374.071C2455.65 374.071 2460.41 350.822 2476.56 342.835C2492.7 334.837 2514.12 345.11 2514.12 345.11C2514.12 345.11 2509.36 368.359 2493.21 376.358Z" fill="url(#paint6_linear_101_2)"/>
<path d="M2002.86 668.138C2018.48 677.489 2040.89 668.845 2040.89 668.845C2040.89 668.845 2037.96 645.044 2022.33 635.704C2006.71 626.353 1984.31 634.986 1984.31 634.986C1984.31 634.986 1987.25 658.788 2002.86 668.138V668.138Z" fill="url(#paint7_linear_101_2)"/>
<path d="M2484.31 620.484C2478.24 620.484 2473.32 615.568 2473.32 609.504C2473.32 603.439 2478.24 598.523 2484.31 598.523C2490.38 598.523 2495.3 603.439 2495.3 609.504C2495.3 615.568 2490.38 620.484 2484.31 620.484Z" fill="#A3BFFA"/>
<path d="M2183.58 664.409C2174.81 664.409 2167.7 657.308 2167.7 648.548C2167.7 639.789 2174.81 632.688 2183.58 632.688C2192.35 632.688 2199.46 639.789 2199.46 648.548C2199.46 657.308 2192.35 664.409 2183.58 664.409Z" fill="#A3BFFA"/>
<path d="M2679.58 632.585C2672.91 632.585 2667.5 627.181 2667.5 620.514C2667.5 613.848 2672.91 608.443 2679.58 608.443C2686.26 608.443 2691.67 613.848 2691.67 620.514C2691.67 627.181 2686.26 632.585 2679.58 632.585Z" fill="#A3BFFA"/>
<path d="M2632.39 352.053C2624.97 352.053 2618.95 346.044 2618.95 338.633C2618.95 331.221 2624.97 325.213 2632.39 325.213C2639.81 325.213 2645.82 331.221 2645.82 338.633C2645.82 346.044 2639.81 352.053 2632.39 352.053Z" fill="#A3BFFA"/>
<path d="M2321.01 347.875C2322.74 354.304 2318.92 360.912 2312.48 362.635C2306.05 364.357 2299.43 360.542 2297.71 354.113C2295.98 347.684 2299.8 341.076 2306.24 339.354C2312.67 337.631 2319.29 341.446 2321.01 347.875Z" fill="#A3BFFA"/>
<path d="M2236.72 369.41C2233.94 369.41 2231.7 367.164 2231.7 364.394C2231.7 361.624 2233.94 359.379 2236.72 359.379C2239.49 359.379 2241.74 361.624 2241.74 364.394C2241.74 367.164 2239.49 369.41 2236.72 369.41Z" fill="#A3BFFA"/>
<path d="M2236.32 558.745C2229.5 558.745 2223.97 554.328 2223.97 548.879C2223.97 543.431 2229.5 539.014 2236.32 539.014C2243.14 539.014 2248.67 543.431 2248.67 548.879C2248.67 554.328 2243.14 558.745 2236.32 558.745Z" fill="#A3BFFA"/>
<path d="M1122.2 732.639V781.147M788.097 683.764V781.142V683.764ZM704.464 586V781.147V586ZM620.831 732.639V781.147V732.639ZM871.731 634.868V781.144V634.868ZM954.936 683.764V781.142V683.764ZM1038.57 586V781.147V586Z" stroke="#9F7AEA" stroke-width="36.547" stroke-linecap="round" stroke-linejoin="round"/>
<path fill-rule="evenodd" clip-rule="evenodd" d="M553.316 678.352H557.821C558.91 678.352 559.787 679.238 559.787 680.318V684.823C559.787 685.913 558.901 686.79 557.821 686.79H553.316C552.795 686.788 552.296 686.58 551.928 686.211C551.559 685.843 551.351 685.344 551.349 684.823V680.318C551.349 680.059 551.399 679.803 551.498 679.564C551.596 679.326 551.741 679.109 551.924 678.926C552.107 678.743 552.324 678.599 552.563 678.5C552.802 678.401 553.058 678.351 553.316 678.352V678.352ZM568.934 678.352H573.439C574.519 678.352 575.405 679.238 575.405 680.318V684.823C575.405 685.913 574.519 686.79 573.439 686.79H568.934C568.413 686.788 567.914 686.58 567.546 686.211C567.178 685.843 566.97 685.344 566.968 684.823V680.318C566.968 679.238 567.854 678.352 568.934 678.352ZM584.563 678.352H589.068C590.148 678.352 591.035 679.238 591.035 680.318V684.823C591.035 685.913 590.148 686.79 589.068 686.79H584.563C584.042 686.788 583.543 686.58 583.175 686.211C582.807 685.843 582.599 685.344 582.597 684.823V680.318C582.597 680.059 582.647 679.803 582.746 679.565C582.844 679.326 582.989 679.109 583.172 678.926C583.354 678.744 583.571 678.599 583.81 678.5C584.049 678.402 584.305 678.351 584.563 678.352ZM600.182 678.352H604.687C605.767 678.352 606.654 679.238 606.654 680.318V684.823C606.654 685.913 605.767 686.79 604.687 686.79H600.182C599.66 686.789 599.159 686.582 598.789 686.214C598.419 685.845 598.21 685.345 598.207 684.823V680.318C598.213 679.796 598.423 679.298 598.792 678.93C599.162 678.563 599.661 678.355 600.182 678.352ZM615.802 678.352H620.307C621.397 678.352 622.283 679.238 622.283 680.318V684.823C622.283 685.082 622.231 685.338 622.131 685.577C622.032 685.816 621.886 686.033 621.703 686.215C621.519 686.398 621.301 686.542 621.062 686.641C620.822 686.739 620.566 686.789 620.307 686.789H615.802C615.281 686.787 614.782 686.579 614.414 686.211C614.046 685.843 613.838 685.344 613.836 684.823V680.318C613.836 679.238 614.722 678.352 615.802 678.352ZM569.507 695.384H574.012C575.092 695.384 575.978 696.27 575.978 697.35V701.864C575.978 702.944 575.092 703.831 574.012 703.831H569.507C568.986 703.83 568.486 703.622 568.117 703.254C567.749 702.885 567.542 702.385 567.541 701.864V697.359C567.54 697.1 567.589 696.843 567.687 696.603C567.786 696.363 567.93 696.145 568.113 695.962C568.296 695.778 568.513 695.633 568.752 695.533C568.992 695.434 569.248 695.383 569.507 695.384ZM585.126 695.384H589.631C590.711 695.384 591.597 696.27 591.597 697.35V701.864C591.597 702.944 590.711 703.831 589.631 703.831H585.126C584.605 703.829 584.106 703.621 583.738 703.252C583.369 702.884 583.161 702.385 583.159 701.864V697.359C583.158 697.1 583.208 696.843 583.306 696.603C583.404 696.363 583.549 696.145 583.732 695.962C583.914 695.778 584.132 695.633 584.371 695.533C584.61 695.434 584.867 695.383 585.126 695.384V695.384ZM600.746 695.384H605.251C606.34 695.384 607.227 696.27 607.227 697.35V701.864C607.227 702.944 606.34 703.831 605.251 703.831H600.746C600.225 703.829 599.726 703.621 599.358 703.252C598.99 702.884 598.782 702.385 598.78 701.864V697.359C598.78 696.27 599.666 695.384 600.746 695.384ZM584.563 660.055H589.068C590.148 660.055 591.035 660.941 591.035 662.021V666.526C591.035 667.616 590.148 668.493 589.068 668.493H584.563C584.042 668.491 583.543 668.283 583.175 667.914C582.807 667.546 582.599 667.047 582.597 666.526V662.021C582.597 661.762 582.647 661.506 582.746 661.268C582.844 661.029 582.989 660.812 583.172 660.629C583.354 660.447 583.571 660.302 583.81 660.203C584.049 660.105 584.305 660.054 584.563 660.055V660.055ZM600.182 660.055H604.687C605.767 660.055 606.654 660.941 606.654 662.021V666.526C606.654 667.616 605.767 668.493 604.687 668.493H600.182C599.66 668.492 599.159 668.285 598.789 667.917C598.419 667.548 598.21 667.048 598.207 666.526V662.021C598.213 661.499 598.423 661.001 598.792 660.633C599.162 660.266 599.661 660.058 600.182 660.055ZM1118.06 700.027H1122.57C1123.66 700.027 1124.53 700.913 1124.53 701.993V706.498C1124.53 707.019 1124.32 707.519 1123.96 707.888C1123.59 708.256 1123.09 708.463 1122.57 708.464H1118.06C1117.54 708.462 1117.04 708.254 1116.67 707.886C1116.3 707.518 1116.1 707.019 1116.09 706.498V701.993C1116.09 701.734 1116.14 701.478 1116.24 701.24C1116.34 701.001 1116.49 700.784 1116.67 700.601C1116.85 700.418 1117.07 700.274 1117.31 700.175C1117.55 700.076 1117.8 700.026 1118.06 700.027V700.027ZM1133.68 700.027H1138.18C1139.26 700.027 1140.15 700.913 1140.15 701.993V706.498C1140.15 707.019 1139.94 707.519 1139.57 707.887C1139.21 708.256 1138.71 708.463 1138.18 708.464H1133.68C1133.16 708.462 1132.66 708.254 1132.29 707.886C1131.92 707.518 1131.71 707.019 1131.71 706.498V701.993C1131.71 700.913 1132.6 700.027 1133.68 700.027ZM1149.31 700.027H1153.81C1154.89 700.027 1155.78 700.913 1155.78 701.993V706.498C1155.78 707.019 1155.57 707.519 1155.2 707.887C1154.83 708.256 1154.33 708.463 1153.81 708.464H1149.31C1148.79 708.462 1148.29 708.254 1147.92 707.886C1147.55 707.518 1147.34 707.019 1147.34 706.498V701.993C1147.34 701.734 1147.39 701.478 1147.49 701.24C1147.59 701.001 1147.73 700.784 1147.92 700.601C1148.1 700.419 1148.32 700.274 1148.56 700.175C1148.79 700.077 1149.05 700.026 1149.31 700.027V700.027ZM1164.93 700.027H1169.43C1170.51 700.027 1171.4 700.913 1171.4 701.993V706.498C1171.4 707.019 1171.19 707.519 1170.82 707.887C1170.45 708.256 1169.95 708.463 1169.43 708.464H1164.93C1164.4 708.464 1163.9 708.257 1163.53 707.888C1163.16 707.52 1162.95 707.02 1162.95 706.498V701.993C1162.96 701.471 1163.17 700.973 1163.54 700.605C1163.91 700.238 1164.41 700.03 1164.93 700.027V700.027ZM1180.55 700.027H1185.05C1186.14 700.027 1187.03 700.913 1187.03 701.993V706.498C1187.03 706.757 1186.98 707.013 1186.88 707.252C1186.78 707.491 1186.63 707.708 1186.45 707.89C1186.26 708.073 1186.05 708.217 1185.81 708.316C1185.57 708.414 1185.31 708.465 1185.05 708.464H1180.55C1180.03 708.462 1179.53 708.254 1179.16 707.886C1178.79 707.518 1178.58 707.019 1178.58 706.498V701.993C1178.58 700.913 1179.47 700.027 1180.55 700.027ZM1134.25 717.059H1138.76C1139.84 717.059 1140.72 717.945 1140.72 719.025V723.539C1140.72 724.619 1139.84 725.505 1138.76 725.505H1134.25C1133.73 725.504 1133.23 725.297 1132.86 724.929C1132.49 724.56 1132.29 724.06 1132.29 723.539V719.034C1132.28 718.775 1132.33 718.518 1132.43 718.278C1132.53 718.038 1132.67 717.82 1132.86 717.637C1133.04 717.453 1133.26 717.308 1133.5 717.208C1133.74 717.109 1133.99 717.058 1134.25 717.059V717.059ZM1149.87 717.059H1154.38C1155.46 717.059 1156.34 717.945 1156.34 719.025V723.539C1156.34 724.619 1155.46 725.505 1154.38 725.505H1149.87C1149.35 725.503 1148.85 725.295 1148.48 724.927C1148.11 724.559 1147.91 724.06 1147.9 723.539V719.034C1147.9 718.775 1147.95 718.518 1148.05 718.278C1148.15 718.038 1148.29 717.82 1148.48 717.637C1148.66 717.453 1148.88 717.308 1149.12 717.208C1149.36 717.109 1149.61 717.058 1149.87 717.059V717.059ZM1165.49 717.059H1170C1171.09 717.059 1171.97 717.945 1171.97 719.025V723.539C1171.97 724.619 1171.09 725.505 1170 725.505H1165.49C1164.97 725.503 1164.47 725.295 1164.1 724.927C1163.73 724.559 1163.53 724.06 1163.53 723.539V719.034C1163.53 717.945 1164.41 717.059 1165.49 717.059ZM1149.31 681.73H1153.81C1154.89 681.73 1155.78 682.616 1155.78 683.696V688.201C1155.78 689.291 1154.89 690.168 1153.81 690.168H1149.31C1148.79 690.166 1148.29 689.958 1147.92 689.589C1147.55 689.221 1147.34 688.722 1147.34 688.201V683.696C1147.34 683.437 1147.39 683.181 1147.49 682.943C1147.59 682.704 1147.73 682.487 1147.92 682.304C1148.1 682.122 1148.32 681.977 1148.56 681.878C1148.79 681.78 1149.05 681.729 1149.31 681.73V681.73ZM1164.93 681.73H1169.43C1170.51 681.73 1171.4 682.616 1171.4 683.696V688.201C1171.4 689.291 1170.51 690.168 1169.43 690.168H1164.93C1164.4 690.167 1163.9 689.96 1163.53 689.592C1163.16 689.223 1162.95 688.723 1162.95 688.201V683.696C1162.96 683.174 1163.17 682.676 1163.54 682.308C1163.91 681.941 1164.41 681.733 1164.93 681.73V681.73Z" fill="#A3BFFA"/>
<path d="M1140.16 609.002H1215.39M550.137 523.064L534.743 538.442L527.265 530.986L550.137 523.064ZM583.489 515.705H628.983H583.489ZM583.843 538.275H659.078H583.843ZM550.137 575.728L534.743 591.106L527.265 583.651L550.137 575.728ZM583.489 568.37H628.983H583.489ZM583.843 590.94H659.078H583.843ZM1106.45 541.126L1091.06 556.504L1083.58 549.048L1106.45 541.126ZM1139.8 533.767H1185.3H1139.8ZM1140.16 556.337H1215.39H1140.16ZM1106.45 593.791L1091.06 609.168L1083.58 601.713L1106.45 593.791ZM1139.8 586.432H1185.3H1139.8Z" stroke="#A3BFFA" stroke-width="4" stroke-linecap="round" stroke-linejoin="round"/>
<path d="M882.507 583.305C865.791 587.265 848.112 573.089 848.112 573.089C848.112 573.089 857.547 552.5 874.268 548.552C890.984 544.592 908.658 558.756 908.658 558.756C908.658 558.756 899.223 579.345 882.507 583.305Z" fill="url(#paint8_linear_101_2)"/>
<path d="M923.168 519.076C940.766 531.197 967.651 522.724 967.651 522.724C967.651 522.724 965.987 494.601 948.377 482.492C930.779 470.37 903.905 478.832 903.905 478.832C903.905 478.832 905.57 506.955 923.168 519.076V519.076Z" fill="url(#paint9_linear_101_2)"/>
<path d="M1052.73 516.457C1042.22 527.155 1022.57 524.9 1022.57 524.9C1022.57 524.9 1019.97 505.297 1030.49 494.605C1041 483.906 1060.65 486.156 1060.65 486.156C1060.65 486.156 1063.25 505.758 1052.73 516.457V516.457Z" fill="url(#paint10_linear_101_2)"/>
<path d="M961.361 733.506C956.373 733.506 952.33 737.55 952.33 742.537C952.33 747.525 956.373 751.568 961.361 751.568C966.349 751.568 970.392 747.525 970.392 742.537C970.392 737.55 966.349 733.506 961.361 733.506Z" fill="#9F7AEA"/>
<path d="M955.252 591C944.698 591 936.142 599.28 936.142 609.493C936.142 619.707 944.698 627.986 955.252 627.986C965.806 627.986 974.362 619.707 974.362 609.493C974.362 599.28 965.806 591 955.252 591Z" fill="#9F7AEA"/>
<path d="M514.78 670.003C511.035 670.003 507.999 666.967 507.999 663.222C507.999 659.477 511.035 656.441 514.78 656.441C518.525 656.441 521.561 659.477 521.561 663.222C521.561 666.967 518.525 670.003 514.78 670.003Z" fill="#9F7AEA"/>
<path d="M1150.71 508.935C1143.56 508.935 1137.77 503.139 1137.77 495.99C1137.77 488.841 1143.56 483.045 1150.71 483.045C1157.86 483.045 1163.66 488.841 1163.66 495.99C1163.66 503.139 1157.86 508.935 1150.71 508.935Z" fill="#9F7AEA"/>
<path d="M994.306 475.328C990.901 475.328 988.142 472.568 988.142 469.164C988.142 465.76 990.901 463 994.306 463C997.71 463 1000.47 465.76 1000.47 469.164C1000.47 472.568 997.71 475.328 994.306 475.328Z" fill="#A3BFFA"/>
<path d="M714.698 535.198C710.272 535.198 706.684 531.61 706.684 527.184C706.684 522.758 710.272 519.17 714.698 519.17C719.124 519.17 722.712 522.758 722.712 527.184C722.712 531.61 719.124 535.198 714.698 535.198Z" fill="#A3BFFA"/>
<path d="M1155.97 648.243C1152.57 648.243 1149.81 646.035 1149.81 643.311C1149.81 640.587 1152.57 638.379 1155.97 638.379C1159.38 638.379 1162.14 640.587 1162.14 643.311C1162.14 646.035 1159.38 648.243 1155.97 648.243Z" fill="#A3BFFA"/>
<path d="M794.606 589.108C796.398 595.797 792.429 602.671 785.741 604.463C779.052 606.255 772.178 602.286 770.386 595.598C768.594 588.91 772.563 582.036 779.251 580.243C785.939 578.451 792.813 582.42 794.606 589.108Z" fill="#A3BFFA"/>
<path d="M1222.12 663.917H1222.28C1223.24 677.447 1233.3 677.656 1233.3 677.656C1233.3 677.656 1222.21 677.872 1222.21 693.506C1222.21 677.872 1211.11 677.656 1211.11 677.656C1211.11 677.656 1221.17 677.447 1222.12 663.917ZM817.898 514H818.056C818.989 527.766 828.816 527.977 828.816 527.977C828.816 527.977 817.979 528.198 817.979 544.104C817.979 528.198 807.142 527.977 807.142 527.977C807.142 527.977 816.966 527.766 817.898 514Z" fill="#A3BFFA"/>
<defs>
<linearGradient id="paint0_linear_101_2" x1="2169.3" y1="3131.69" x2="2139.57" y2="-1164.05" gradientUnits="userSpaceOnUse">
<stop stop-color="#EBF4FF"/>
<stop offset="1" stop-color="#C3DAFE"/>
</linearGradient>
<linearGradient id="paint1_linear_101_2" x1="2250.35" y1="2352.55" x2="2250.23" y2="2070.07" gradientUnits="userSpaceOnUse">
<stop stop-color="#C3DAFE"/>
<stop offset="1" stop-color="#7F9CF5"/>
</linearGradient>
<linearGradient id="paint2_linear_101_2" x1="752.978" y1="1216.54" x2="1259.26" y2="541.907" gradientUnits="userSpaceOnUse">
<stop stop-color="#E6FFFA"/>
<stop offset="1" stop-color="#38B2AC"/>
</linearGradient>
<linearGradient id="paint3_linear_101_2" x1="1728.24" y1="2197.65" x2="1730.37" y2="2011.44" gradientUnits="userSpaceOnUse">
<stop stop-color="white"/>
<stop offset="1" stop-color="#EBF4FF"/>
</linearGradient>
<linearGradient id="paint4_linear_101_2" x1="1876.1" y1="2197.97" x2="1878.23" y2="2011.76" gradientUnits="userSpaceOnUse">
<stop stop-color="white"/>
<stop offset="1" stop-color="#EBF4FF"/>
</linearGradient>
<linearGradient id="paint5_linear_101_2" x1="2434.4" y1="870.601" x2="2566.62" y2="808.196" gradientUnits="userSpaceOnUse">
<stop stop-color="#E6FFFA"/>
<stop offset="1" stop-color="#38B2AC"/>
</linearGradient>
<linearGradient id="paint6_linear_101_2" x1="2431.22" y1="401.307" x2="2564.25" y2="295.962" gradientUnits="userSpaceOnUse">
<stop stop-color="#B2F5EA"/>
<stop offset="1" stop-color="#38B2AC"/>
</linearGradient>
<linearGradient id="paint7_linear_101_2" x1="2063.31" y1="698.238" x2="1937.76" y2="581.458" gradientUnits="userSpaceOnUse">
<stop stop-color="#B2F5EA"/>
<stop offset="1" stop-color="#38B2AC"/>
</linearGradient>
<linearGradient id="paint8_linear_101_2" x1="819.56" y1="593.151" x2="965.89" y2="524.02" gradientUnits="userSpaceOnUse">
<stop stop-color="#E6FFFA"/>
<stop offset="1" stop-color="#38B2AC"/>
</linearGradient>
<linearGradient id="paint9_linear_101_2" x1="991.72" y1="558.848" x2="853.192" y2="412.774" gradientUnits="userSpaceOnUse">
<stop stop-color="#E6FFFA"/>
<stop offset="1" stop-color="#38B2AC"/>
</linearGradient>
<linearGradient id="paint10_linear_101_2" x1="1010.79" y1="553.001" x2="1086.79" y2="433.874" gradientUnits="userSpaceOnUse">
<stop stop-color="#E6FFFA"/>
<stop offset="1" stop-color="#38B2AC"/>
</linearGradient>
</defs>
</svg>
