<svg width="4794" height="765" viewBox="0 0 4794 765" fill="none" xmlns="http://www.w3.org/2000/svg">
<path d="M4155.24 640V177.3H4335.69C4376.23 177.3 4410.83 183.69 4439.47 196.469C4468.11 209.248 4490.15 227.756 4505.57 251.993C4520.99 276.23 4528.71 305.093 4528.71 338.584C4528.71 372.075 4520.99 400.938 4505.57 425.175C4490.15 448.971 4468.11 467.479 4439.47 480.699C4410.83 493.478 4376.23 499.868 4335.69 499.868H4191.59L4221.34 468.801V640H4155.24ZM4221.34 475.411L4191.59 442.361H4333.71C4376.01 442.361 4407.96 433.327 4429.55 415.26C4451.59 397.193 4462.6 371.634 4462.6 338.584C4462.6 305.534 4451.59 279.975 4429.55 261.908C4407.96 243.841 4376.01 234.807 4333.71 234.807H4191.59L4221.34 201.757V475.411Z" fill="white"/>
<path d="M3785.79 376.922H4023.75V433.107H3785.79V376.922ZM3791.74 582.493H4061.43V640H3725.64V177.3H4052.18V234.807H3791.74V582.493Z" fill="white"/>
<path d="M3258.6 640V177.3H3439.06C3479.6 177.3 3514.19 183.69 3542.83 196.469C3571.48 209.248 3593.51 227.756 3608.93 251.993C3624.36 276.23 3632.07 305.093 3632.07 338.584C3632.07 372.075 3624.36 400.938 3608.93 425.175C3593.51 448.971 3571.48 467.259 3542.83 480.038C3514.19 492.817 3479.6 499.207 3439.06 499.207H3294.96L3324.7 468.801V640H3258.6ZM3567.95 640L3450.29 472.106H3521.02L3640 640H3567.95ZM3324.7 475.411L3294.96 443.022H3437.07C3479.38 443.022 3511.33 433.988 3532.92 415.921C3554.95 397.413 3565.97 371.634 3565.97 338.584C3565.97 305.534 3554.95 279.975 3532.92 261.908C3511.33 243.841 3479.38 234.807 3437.07 234.807H3294.96L3324.7 201.757V475.411Z" fill="white"/>
<path d="M2970.1 645.288C2934.41 645.288 2901.58 639.559 2871.61 628.102C2841.65 616.204 2815.65 599.679 2793.62 578.527C2771.58 556.934 2754.4 531.816 2742.06 503.173C2729.72 474.53 2723.55 443.022 2723.55 408.65C2723.55 374.278 2729.72 342.77 2742.06 314.127C2754.4 285.484 2771.58 260.586 2793.62 239.434C2816.09 217.841 2842.31 201.316 2872.28 189.859C2902.24 177.961 2935.29 172.012 2971.43 172.012C3008 172.012 3041.49 177.961 3071.9 189.859C3102.3 201.757 3128.08 219.604 3149.23 243.4L3108.25 284.382C3089.3 265.874 3068.59 252.434 3046.12 244.061C3024.08 235.248 3000.07 230.841 2974.07 230.841C2947.63 230.841 2922.95 235.248 2900.04 244.061C2877.56 252.874 2857.95 265.213 2841.21 281.077C2824.9 296.941 2812.12 315.89 2802.87 337.923C2794.06 359.516 2789.65 383.091 2789.65 408.65C2789.65 433.768 2794.06 457.344 2802.87 479.377C2812.12 500.97 2824.9 519.918 2841.21 536.223C2857.95 552.087 2877.56 564.426 2900.04 573.239C2922.51 582.052 2946.97 586.459 2973.41 586.459C2998.09 586.459 3021.66 582.713 3044.14 575.222C3067.05 567.29 3088.2 554.29 3107.59 536.223L3145.27 586.459C3122.35 605.848 3095.47 620.611 3064.63 630.746C3034.22 640.441 3002.71 645.288 2970.1 645.288ZM3081.81 577.866V406.006H3145.27V586.459L3081.81 577.866Z" fill="white"/>
<path d="M2226.71 640L2436.24 177.3H2501.68L2711.88 640H2642.47L2455.41 214.316H2481.85L2294.79 640H2226.71ZM2315.94 524.325L2333.79 471.445H2594.22L2613.39 524.325H2315.94Z" fill="white"/>
<path d="M1829.73 640V177.3H2010.19C2050.73 177.3 2085.32 183.69 2113.96 196.469C2142.61 209.248 2164.64 227.756 2180.06 251.993C2195.49 276.23 2203.2 305.093 2203.2 338.584C2203.2 372.075 2195.49 400.938 2180.06 425.175C2164.64 448.971 2142.61 467.259 2113.96 480.038C2085.32 492.817 2050.73 499.207 2010.19 499.207H1866.09L1895.83 468.801V640H1829.73ZM2139.08 640L2021.42 472.106H2092.15L2211.13 640H2139.08ZM1895.83 475.411L1866.09 443.022H2008.2C2050.51 443.022 2082.46 433.988 2104.05 415.921C2126.08 397.413 2137.1 371.634 2137.1 338.584C2137.1 305.534 2126.08 279.975 2104.05 261.908C2082.46 243.841 2050.51 234.807 2008.2 234.807H1866.09L1895.83 201.757V475.411Z" fill="white"/>
<path d="M1460.29 376.922H1698.25V433.107H1460.29V376.922ZM1466.24 582.493H1735.92V640H1400.14V177.3H1726.67V234.807H1466.24V582.493Z" fill="white"/>
<path d="M1117.28 640V234.807H958.644V177.3H1341.36V234.807H1182.72V640H1117.28Z" fill="white"/>
<path d="M4705 640.5C4692.5 640.5 4680.92 638.25 4670.25 633.75C4659.58 629.25 4650.25 623 4642.25 615C4634.25 606.833 4628 597.417 4623.5 586.75C4619.17 576.083 4617 564.583 4617 552.25C4617 539.917 4619.25 528.417 4623.75 517.75C4628.25 507.083 4634.5 497.75 4642.5 489.75C4650.5 481.583 4659.83 475.25 4670.5 470.75C4681.33 466.25 4693 464 4705.5 464C4718 464 4729.58 466.25 4740.25 470.75C4751.08 475.083 4760.42 481.25 4768.25 489.25C4776.25 497.25 4782.42 506.583 4786.75 517.25C4791.25 527.75 4793.5 539.25 4793.5 551.75C4793.5 564.25 4791.25 575.917 4786.75 586.75C4782.25 597.417 4775.92 606.833 4767.75 615C4759.75 623 4750.42 629.25 4739.75 633.75C4729.08 638.25 4717.5 640.5 4705 640.5ZM4734.75 602.25L4709.75 563.75H4727L4752 602.25H4734.75ZM4705 629.25C4715.83 629.25 4725.92 627.25 4735.25 623.25C4744.58 619.25 4752.75 613.75 4759.75 606.75C4766.75 599.75 4772.17 591.583 4776 582.25C4779.83 572.75 4781.75 562.583 4781.75 551.75C4781.75 540.917 4779.83 530.833 4776 521.5C4772.17 512.167 4766.83 504.083 4760 497.25C4753.17 490.417 4745.08 485.083 4735.75 481.25C4726.58 477.25 4716.5 475.25 4705.5 475.25C4694.5 475.25 4684.25 477.25 4674.75 481.25C4665.42 485.083 4657.33 490.583 4650.5 497.75C4643.67 504.75 4638.33 512.917 4634.5 522.25C4630.67 531.417 4628.75 541.417 4628.75 552.25C4628.75 563.083 4630.67 573.167 4634.5 582.5C4638.33 591.833 4643.67 600 4650.5 607C4657.33 614 4665.42 619.5 4674.75 623.5C4684.08 627.333 4694.17 629.25 4705 629.25ZM4669.75 602.25V502.25H4709.75C4722.42 502.25 4732.33 505.333 4739.5 511.5C4746.67 517.667 4750.25 525.917 4750.25 536.25C4750.25 546.917 4746.67 555.25 4739.5 561.25C4732.33 567.25 4722.42 570.25 4709.75 570.25H4686.75V602.25H4669.75ZM4686.5 556.25H4708.5C4716.5 556.25 4722.67 554.5 4727 551C4731.5 547.5 4733.75 542.583 4733.75 536.25C4733.75 529.917 4731.5 525.083 4727 521.75C4722.67 518.25 4716.5 516.5 4708.5 516.5H4686.5V556.25Z" fill="white"/>
<path fill-rule="evenodd" clip-rule="evenodd" d="M381.408 0L762.657 163.512V641.78L462.875 764.47L458.451 712.249L712.614 608.229V196.461L381.404 54.4099L50.0431 196.464V608.229L305.074 712.604L300.971 764.47L0 641.78V163.509L381.408 0Z" fill="white"/>
<path fill-rule="evenodd" clip-rule="evenodd" d="M408.766 396.844C454.283 346.968 451.978 282.371 438.77 231.433C431.35 202.814 420.276 177.381 411.131 159.185C406.544 150.058 402.405 142.679 399.391 137.547C397.883 134.98 396.653 132.97 395.786 131.58C395.353 130.885 395.01 130.345 394.768 129.967C394.647 129.778 394.551 129.629 394.482 129.522L394.397 129.393L394.361 129.337L381.798 110.205L369.24 129.34L369.204 129.396L369.12 129.525C369.05 129.632 368.955 129.78 368.834 129.969C368.592 130.347 368.249 130.888 367.815 131.583C366.949 132.973 365.72 134.982 364.213 137.55C361.2 142.682 357.064 150.061 352.479 159.188C343.339 177.383 332.271 202.817 324.854 231.434C311.655 282.368 309.35 346.958 354.835 396.833C344.203 401.013 334.168 404.403 324.697 407.087C321.783 372.101 310.872 344.007 295.186 321.649C276.814 295.462 252.487 277.983 228.728 266.329C205.001 254.691 181.451 248.666 163.958 245.531C155.176 243.957 147.827 243.096 142.618 242.625C140.011 242.39 137.934 242.252 136.473 242.172C135.742 242.132 135.166 242.107 134.753 242.091C134.547 242.083 134.382 242.077 134.259 242.073C134.198 242.071 134.147 242.07 134.107 242.069L134.055 242.068L134.035 242.067C134.027 242.067 118.652 241.704 118.652 241.704C118.652 241.704 118.652 257.07 118.652 257.079L118.652 257.103L118.652 257.166C118.653 257.217 118.653 257.282 118.654 257.364C118.655 257.526 118.657 257.75 118.662 258.033C118.67 258.599 118.688 259.4 118.721 260.419C118.787 262.455 118.918 265.362 119.174 268.985C119.688 276.22 120.709 286.361 122.749 298.149C126.794 321.533 134.997 352.31 151.899 379.728C168.973 407.426 195.241 432.109 234.894 441.476C254.433 446.091 276.643 446.848 301.889 442.855C315.302 467.954 333.495 488.47 354.462 505.243C349.599 507.836 344.638 510.289 339.597 512.608C325.519 483.139 304.766 467.08 279.538 462.925C251.941 458.38 222.837 468.874 198.099 482.375C172.906 496.123 149.696 514.407 132.978 529.003C124.568 536.346 117.689 542.855 112.894 547.547C110.495 549.895 108.612 551.792 107.316 553.118C106.667 553.781 106.165 554.301 105.817 554.663C105.644 554.844 105.508 554.986 105.413 555.086L105.3 555.206L83.2593 578.601L115.294 580.517L115.365 580.521L115.546 580.531C115.698 580.539 115.913 580.551 116.19 580.565C116.744 580.593 117.545 580.63 118.579 580.671C120.646 580.754 123.646 580.852 127.465 580.92C135.1 581.056 146.025 581.07 159.336 580.593C185.913 579.639 222.215 576.718 260.919 568.8C280.737 564.746 301.512 559.312 322.092 552.013C339.949 613.116 330.508 659.496 316.586 690.92C312.953 699.121 308.989 706.355 305.074 712.604L300.971 764.47C300.971 764.47 301.335 764.166 301.456 764.059C301.7 763.846 302.027 763.556 302.429 763.19C303.232 762.459 304.338 761.421 305.688 760.08C308.387 757.398 312.072 753.492 316.275 748.374C324.672 738.15 335.206 723.007 344.042 703.063C360.868 665.083 371.164 610.465 350.078 540.792C360.921 535.896 371.556 530.397 381.802 524.22C392.048 530.397 402.682 535.896 413.526 540.792C392.442 610.473 402.793 665.098 419.675 703.08C428.54 723.023 439.102 738.166 447.52 748.389C451.734 753.506 455.428 757.412 458.133 760.093C459.486 761.434 460.594 762.471 461.399 763.203C461.801 763.568 462.128 763.858 462.373 764.071C462.495 764.177 462.875 764.47 462.875 764.47L458.451 712.249C454.593 706.077 450.696 698.957 447.117 690.904C433.15 659.481 423.664 613.107 441.512 552.013C462.092 559.312 482.867 564.746 502.685 568.8C541.389 576.718 577.691 579.639 604.269 580.593C617.579 581.07 628.505 581.056 636.14 580.92C639.959 580.852 642.959 580.754 645.026 580.671C646.06 580.63 646.861 580.593 647.415 580.565C647.692 580.551 647.907 580.539 648.059 580.531L648.239 580.521L648.311 580.517L680.457 578.594L658.323 555.225L658.164 555.058C658.069 554.958 657.934 554.817 657.76 554.637C657.412 554.277 656.91 553.759 656.261 553.1C654.965 551.781 653.082 549.893 650.683 547.558C645.888 542.89 639.008 536.415 630.598 529.109C613.879 514.587 590.67 496.395 565.481 482.71C540.742 469.269 511.66 458.827 484.094 463.313C458.903 467.413 438.14 483.337 424.043 512.624C418.99 510.301 414.016 507.843 409.142 505.243C430.098 488.478 448.284 467.974 461.695 442.892C486.947 446.898 509.163 446.148 528.707 441.535C568.363 432.176 594.632 407.485 611.705 379.779C628.607 352.351 636.809 321.562 640.855 298.167C642.894 286.374 643.916 276.228 644.429 268.99C644.686 265.366 644.816 262.457 644.883 260.42C644.916 259.401 644.933 258.599 644.942 258.033C644.946 257.75 644.949 257.526 644.95 257.364C644.95 257.283 644.951 257.217 644.951 257.166L644.951 257.102V257.079C644.951 257.07 644.951 241.704 644.951 241.704C644.951 241.704 629.576 242.067 629.568 242.067L629.548 242.068L629.496 242.069C629.456 242.07 629.405 242.071 629.344 242.073C629.281 242.075 629.206 242.078 629.12 242.081C629.04 242.084 628.95 242.087 628.85 242.091C628.438 242.107 627.861 242.132 627.131 242.172C625.671 242.252 623.594 242.39 620.989 242.625C615.783 243.096 608.439 243.958 599.662 245.531C582.179 248.666 558.641 254.692 534.922 266.33C511.171 277.984 486.851 295.463 468.474 321.647C452.778 344.01 441.852 372.114 438.917 407.118C429.443 404.429 419.404 401.032 408.766 396.844ZM381.798 418.095C364.353 425.764 347.957 431.694 332.548 436.042C345.208 456.959 362.171 474.169 381.802 488.305C401.426 474.174 418.383 456.972 431.041 436.066C415.633 431.711 399.24 425.772 381.798 418.095ZM381.804 381.557C422.19 341.774 422.359 287.764 409.704 238.956C402.979 213.02 392.835 189.634 384.299 172.648C383.448 170.956 382.615 169.331 381.805 167.775C380.996 169.33 380.164 170.954 379.314 172.645C370.782 189.631 360.643 213.017 353.922 238.954C341.273 287.763 341.442 341.774 381.804 381.557ZM468.547 413.591C489.546 416.684 507.119 415.805 521.804 412.339C551.936 405.227 572.193 386.677 586.137 364.05C600.252 341.144 607.559 314.508 611.267 293.06C612.532 285.745 613.361 279.14 613.903 273.635C611.183 274.014 608.188 274.482 604.966 275.06C589.3 277.869 568.637 283.209 548.158 293.258C527.709 303.292 507.83 317.823 493.057 338.871C480.065 357.383 470.554 381.593 468.547 413.591ZM451.936 523.888C462.49 502.888 475.826 495.054 488.922 492.923C506.478 490.065 528.197 496.602 551.138 509.065C573.091 520.993 593.958 537.129 609.749 550.754C608.315 550.713 606.847 550.666 605.346 550.612C579.89 549.699 545.327 546.901 508.708 539.41C489.748 535.531 470.552 530.463 451.936 523.888ZM311.713 523.872C301.131 502.6 287.751 494.683 274.654 492.526C257.129 489.64 235.432 496.184 212.492 508.703C190.453 520.73 169.508 537.028 153.694 550.759C155.18 550.717 156.702 550.668 158.258 550.612C183.715 549.699 218.277 546.901 254.896 539.41C273.872 535.528 293.083 530.455 311.713 523.872ZM295.064 413.549C293.077 381.568 283.58 357.371 270.599 338.869C255.834 317.824 235.953 303.293 215.497 293.259C195.009 283.21 174.334 277.869 158.658 275.06C155.428 274.481 152.427 274.013 149.701 273.634C150.243 279.133 151.072 285.731 152.336 293.039C156.044 314.475 163.35 341.098 177.465 363.996C191.408 386.614 211.666 405.162 241.802 412.281C256.489 415.75 274.064 416.634 295.064 413.549Z" fill="white"/>
</svg>
