<svg width="800" height="626" viewBox="0 0 800 626" fill="none" xmlns="http://www.w3.org/2000/svg">
<g clip-path="url(#clip0)">
<path opacity="0.2" d="M280.627 613.848C357.697 613.848 420.176 602.012 420.176 587.412C420.176 572.812 357.697 560.976 280.627 560.976C203.556 560.976 141.078 572.812 141.078 587.412C141.078 602.012 203.556 613.848 280.627 613.848Z" fill="#A3BFFA"/>
<path opacity="0.2" d="M464.805 88.2785C413.518 86.5034 364.672 69.9414 318.029 51.8263C271.386 33.7111 225.187 13.6465 175.128 4.05006C142.932 -2.12305 106.107 -3.00266 80.1703 14.2408C55.2005 30.8821 47.1335 59.5288 42.7989 86.131C39.534 106.148 37.6163 127.219 46.555 145.96C52.7678 158.972 63.7827 169.908 71.4059 182.373C97.9289 225.735 79.1798 279.209 50.4459 321.549C36.9744 341.408 21.3237 360.379 10.919 381.497C0.514253 402.616 -4.29586 426.896 4.80928 448.498C13.8272 469.894 35.3261 485.933 58.616 497.225C105.917 520.166 161.633 526.728 216.002 530.452C336.319 538.678 457.269 535.12 577.902 531.546C622.548 530.23 667.384 528.891 711.301 521.989C735.693 518.153 760.868 512.068 778.579 497.376C801.053 478.73 806.624 447.159 791.56 423.782C766.297 384.556 696.467 374.817 678.788 332.73C669.072 309.559 679.049 283.758 693.178 262.275C723.481 216.178 774.269 175.74 776.939 123.059C778.778 86.8759 754.363 50.6376 716.611 33.513C677.044 15.5642 622.168 17.8227 592.99 47.5312C562.917 78.0877 510.093 89.8555 464.805 88.2785Z" fill="#A3BFFA"/>
<path d="M424.051 286.657L399.778 270.293L412.021 252.067L347.913 246.956L324.877 264.77L296.04 248.604L271.989 251.497L271.704 245.157C271.406 238.548 270.742 231.961 269.715 225.425C269.818 223.444 269.889 221.17 269.881 218.698C269.881 208.277 268.471 194.465 262.274 185.257L263.7 172.435L252.131 158.765C253.989 155.064 256.107 151.5 258.47 148.099C258.866 147.529 259.263 146.974 259.691 146.435C274.707 145.349 286.554 133.003 286.554 117.907C286.554 117.21 286.554 116.512 286.475 115.823C286.475 115.546 286.42 115.26 286.388 114.983C287.854 115.776 289.336 116.568 290.818 117.36C291.095 117.757 291.412 118.153 291.761 118.62L291.832 118.708L292.276 119.254L292.418 119.421C292.577 119.611 292.743 119.793 292.91 119.983L293.021 120.11C293.441 120.578 293.884 121.053 294.36 121.521C294.416 121.567 294.469 121.617 294.518 121.671L295.113 122.226L295.279 122.377C295.786 122.828 296.325 123.264 296.864 123.676L297.038 123.803L297.72 124.27L297.942 124.413C298.203 124.572 298.473 124.738 298.734 124.889L298.829 124.944C299.138 125.11 299.455 125.269 299.772 125.42L299.931 125.483C300.2 125.599 300.464 125.71 300.723 125.816L300.969 125.903C301.246 125.998 301.516 126.085 301.801 126.164L301.975 126.212C302.324 126.299 302.672 126.37 303.029 126.426H303.069C303.404 126.48 303.743 126.515 304.083 126.529H304.313C304.616 126.545 304.921 126.545 305.224 126.529H305.422C305.802 126.507 306.181 126.462 306.555 126.394C308.328 126.161 310.031 125.55 311.548 124.603C311.934 124.345 312.276 124.027 312.562 123.66C314.147 121.584 312.404 119.31 312.404 119.31C311.786 117.836 307.776 116.798 307.776 116.798C307.776 116.798 295.097 111.504 295.097 107.288C295.097 103.073 291.927 81.2014 259.207 76.2011C259.207 76.2011 237.922 75.0045 231.939 86.3998L231.813 87.7311C230.053 88.8326 228.595 91.0435 226.86 91.6933C226.11 91.8543 225.387 92.1211 224.712 92.4857V92.3351C224.512 92.5104 224.348 92.723 224.229 92.9612C223.856 93.7029 223.633 94.5106 223.571 95.3385C223.393 96.3498 223.041 97.3228 222.533 98.215C222.391 98.4686 222.232 98.7121 222.058 98.9441V98.9441L221.923 99.158C222.843 99.2297 223.767 99.0803 224.617 98.7222C224.483 99.8071 224.217 100.872 223.825 101.892C224.328 101.908 224.826 101.779 225.259 101.521C225.692 101.263 226.041 100.885 226.265 100.434V100.37L226.368 100.228C226.568 99.861 226.732 99.4763 226.86 99.0788L226.773 99.1739C226.931 98.6588 227.074 98.1358 227.248 97.6286C227.328 97.343 227.46 97.0744 227.636 96.8362C227.848 96.623 228.106 96.4624 228.391 96.3674C228.676 96.2725 228.98 96.2457 229.277 96.2894L228.952 103.16H229.094C228.904 103.66 228.67 104.142 228.397 104.602C227.272 106.425 225.227 107.669 224.475 109.666C224.15 110.629 224.026 111.648 224.11 112.661C224.11 113.256 224.181 113.858 224.229 114.452V114.405C224.34 115.989 224.371 117.495 223.516 118.771C222.929 119.643 221.986 120.3 221.661 121.291C221.571 121.567 221.531 121.857 221.542 122.147C221.606 123.015 221.787 123.871 222.081 124.69C222.085 124.675 222.085 124.659 222.081 124.643C222.279 125.246 222.325 125.888 222.216 126.513C221.859 128.098 219.934 129.421 220.029 130.935C220.023 131.134 220.053 131.332 220.116 131.521C220.487 132.261 221.128 132.828 221.907 133.106C223.129 133.801 224.532 134.11 225.933 133.994C226.458 133.899 226.965 133.725 227.438 133.479C226.884 134.754 226.313 136.014 225.734 137.211C225.647 137.401 225.552 137.591 225.457 137.782C225.457 137.782 220.56 134.509 217.778 141.181C216.966 142.568 216.386 144.077 216.059 145.651C215.919 146.28 215.723 146.895 215.472 147.489C214.238 149.579 212.389 151.239 210.179 152.244C204.505 154.843 181.588 183.426 181.183 190.828C180.985 193.717 180.497 196.579 179.725 199.37C177.921 205.944 177.458 212.813 178.362 219.569C178.646 221.753 179.115 223.908 179.765 226.012C182.198 233.405 183.822 247.202 183.822 247.202L186.453 271.149C186.356 274.454 186.499 277.762 186.881 281.047C184.195 284.114 173.41 296.896 177.53 300.374C180.7 303.116 186.247 302.665 189.361 302.102C186.739 308.592 182.61 319.876 182.063 327.626C181.271 339.093 183.418 354.284 186.818 360.117C190.217 365.949 201.549 380.91 201.549 380.91C201.549 380.91 201.018 401.434 205.068 408.891C209.117 416.348 210.749 431.817 210.749 431.817C210.749 431.817 214.529 444.876 212.635 449.678C210.742 454.48 216.146 458.474 210.472 461.668C204.798 464.861 197.539 536.839 197.539 536.839C197.539 536.839 194.615 584.012 197.539 586.414C197.696 586.527 197.863 586.626 198.039 586.707V602.556C198.039 602.556 196.01 605.884 204.259 606.557C209.909 607.009 225.925 608.031 235.426 608.626L242.788 609.085C242.788 609.085 260.221 612.556 267.924 609.085C275.627 605.614 289.28 605.694 287.252 596.525C286.983 595.277 286.622 594.051 286.174 592.856C283.947 587.166 280.167 586.517 273.202 584.932C272.797 584.845 272.409 584.765 272.053 584.702C264.715 583.426 262.306 586.842 258.193 582.396C254.619 578.553 243.239 574.25 239.364 572.887C239.46 572.601 239.578 572.324 239.673 572.031C238.576 571.845 237.556 571.347 236.734 570.597L247.233 571.262L253.486 571.65C253.486 571.65 268.304 574.606 274.882 571.65C281.459 568.695 293.028 568.774 291.301 560.984C291.073 559.923 290.769 558.879 290.39 557.862C288.496 553.028 285.278 552.497 279.359 551.158C279.018 551.087 278.701 551.015 278.384 550.96C272.148 549.874 270.103 552.775 266.609 549.003C263.613 545.785 254.159 542.18 250.76 540.951C250.76 539.192 248.382 536.688 246.885 534.176C245.125 531.244 248.375 520.982 248.375 520.982L250.229 478.404C250.935 478.09 251.682 477.876 252.448 477.77C252.448 477.77 260.832 469.766 258.938 461.24C258.552 458.661 258.351 456.058 258.335 453.45C261.093 450.891 264.889 447.111 265.967 444.781C267.726 440.985 265.967 422.592 265.967 422.592V352.263L279.993 353.682L292.719 354.989L296.594 355.386L309.321 356.669L338.57 359.625L364.927 354.633L376.33 352.477L399.778 348.04V290.667L424.051 286.657ZM231.004 96.543L229.372 96.3687C229.911 96.3924 230.481 96.4954 231.004 96.543Z" fill="#A0AEC0"/>
<path d="M367.161 323.91C359.237 335.25 330.749 329.243 330.749 329.243L308.671 308.584L305.7 305.787L310.684 295.2C310.684 295.2 312.269 295.636 314.987 296.412C329.259 300.557 373.849 314.377 367.161 323.91Z" fill="#EFB7B9"/>
<path opacity="0.1" d="M314.971 296.412C313.996 299.804 311.326 304.883 308.671 308.584L305.7 305.787L310.684 295.2C310.684 295.2 312.285 295.636 314.971 296.412Z" fill="#1A202C"/>
<path d="M239.254 177.023C239.254 177.023 218.904 186.049 219.902 208.214C220.621 222.493 222.176 236.718 224.562 250.815C224.562 250.815 220.401 284.169 237.724 292.767C255.047 301.365 271.078 308.434 271.078 308.434C271.078 308.434 298.179 311.35 301.547 312.554C304.915 313.759 315.439 295.342 313.497 292.474C311.556 289.605 286.681 283.591 283.511 278.804C280.342 274.018 273.011 271.062 273.011 271.062C273.011 271.062 265.444 266.482 264.929 262.345C264.414 258.209 266.41 255.126 266.918 253.311C267.425 251.497 268.709 233.976 268.709 233.976C268.709 233.976 277.251 171.611 239.254 177.023Z" fill="#EDF2F7"/>
<path opacity="0.1" d="M252.685 249.904C252.685 249.904 224.768 254.579 227.47 264.35C227.47 264.35 237.605 253.803 252.685 249.904Z" fill="#1A202C"/>
<path opacity="0.1" d="M252.899 253.858C252.899 253.858 237.55 266.387 240.553 267.029C243.556 267.67 252.899 253.858 252.899 253.858Z" fill="#1A202C"/>
<path opacity="0.1" d="M260.277 258.225C260.277 258.225 256.164 266.648 258.692 266.078C261.22 265.507 260.277 258.225 260.277 258.225Z" fill="#1A202C"/>
<path d="M316.001 297.308L314.305 296.824C314.789 295.239 314.924 293.956 314.527 293.361C312.586 290.493 287.727 284.486 284.565 279.692C281.403 274.897 274.065 271.95 274.065 271.95C274.065 271.95 266.498 267.369 265.983 263.233C265.467 259.096 267.464 256.014 267.972 254.199C268.479 252.384 269.762 234.855 269.762 234.855C269.762 234.855 278.281 172.498 240.284 177.911C240.284 177.911 219.934 186.945 220.924 209.109C221.643 223.389 223.202 237.614 225.592 251.711C225.592 251.711 221.432 285.064 238.754 293.662C256.077 302.26 272.108 309.329 272.108 309.329C272.108 309.329 299.202 312.237 302.577 313.45C303.853 313.909 306.159 311.54 308.418 308.283L309.701 309.48L331.779 330.131C331.779 330.131 360.267 336.145 368.191 324.805C374.888 315.264 330.305 301.444 316.001 297.308Z" fill="#CBD5E0"/>
<path d="M227.541 93.8328C226.765 93.9845 226.022 94.2715 225.346 94.6807C224.554 95.3385 224.554 96.4637 224.356 97.4464C224.123 98.8133 223.581 100.109 222.771 101.234C223.672 101.3 224.577 101.151 225.41 100.798C225.274 101.883 225.008 102.947 224.617 103.968C225.111 103.981 225.598 103.851 226.019 103.593C226.441 103.336 226.78 102.963 226.994 102.518C227.414 101.625 227.745 100.694 227.985 99.7365C228.059 99.4503 228.189 99.1812 228.365 98.9441C229.094 98.0803 230.449 98.4686 231.575 98.5796C232.511 98.6585 233.452 98.4856 234.299 98.0788C235.146 97.6719 235.869 97.0459 236.393 96.2656C237.589 94.4509 237.661 89.8073 234.808 89.3159C231.828 88.8246 229.974 92.9295 227.541 93.8328Z" fill="#1A202C"/>
<g opacity="0.1">
<path opacity="0.1" d="M225.267 95.6555C225.338 95.2672 225.386 94.863 225.473 94.4747C224.72 95.1325 224.681 96.2498 224.482 97.2404C224.383 97.8119 224.226 98.372 224.015 98.9124C224.639 97.9179 225.064 96.8118 225.267 95.6555V95.6555Z" fill="#1A202C"/>
<path opacity="0.1" d="M225.521 102.201C225.915 101.181 226.181 100.117 226.313 99.0312C225.52 99.3652 224.661 99.5143 223.801 99.4671C223.551 100.024 223.245 100.555 222.89 101.052C223.788 101.122 224.69 100.975 225.521 100.624C225.389 101.709 225.123 102.774 224.728 103.794C225.222 103.805 225.708 103.675 226.13 103.418C226.551 103.161 226.89 102.788 227.105 102.344C227.303 101.983 227.462 101.604 227.581 101.21C227.348 101.535 227.038 101.797 226.678 101.97C226.317 102.143 225.92 102.222 225.521 102.201V102.201Z" fill="#1A202C"/>
<path opacity="0.1" d="M232.478 96.8124C231.353 96.7015 229.99 96.3132 229.261 97.1769C229.087 97.416 228.958 97.6845 228.88 97.9694C228.809 98.1754 228.746 98.3894 228.69 98.6033C229.443 98.009 230.663 98.326 231.686 98.429C232.622 98.5054 233.562 98.3314 234.408 97.9248C235.255 97.5181 235.978 96.8935 236.504 96.1151C236.744 95.7303 236.923 95.3106 237.035 94.8709C236.492 95.5426 235.793 96.0709 234.998 96.4094C234.204 96.7479 233.339 96.8863 232.478 96.8124Z" fill="#1A202C"/>
</g>
<path d="M251.394 159.28L263.478 173.814L261.901 188.482L247.297 165.62L251.394 159.28Z" fill="#EDF2F7"/>
<path d="M263.471 173.814L261.989 187.61L261.894 188.482L248.715 167.847L247.297 165.62L247.709 164.978L251.386 159.28L252.202 160.263L263.471 173.814Z" fill="#CBD5E0"/>
<path d="M269.747 139.604C265.658 140.777 261.751 144.803 258.351 149.692C256.054 153.065 253.999 156.598 252.202 160.263C251.085 162.498 250.102 164.645 249.286 166.515L248.715 167.847C247.336 171.104 246.568 173.283 246.568 173.283C246.568 173.283 215.266 149.747 220.219 148.163C221.883 147.632 224.07 144.066 226.234 139.572L226.503 139.002C227.874 136.117 229.221 132.9 230.418 129.873C232.866 123.652 234.681 118.248 234.681 118.248C234.681 118.248 282.228 136.038 269.747 139.604Z" fill="#EFB7B9"/>
<path d="M288.472 116.925C288.472 116.925 295.699 130 305.406 128.217C315.114 126.434 311.12 121.196 311.12 121.196L288.472 116.925Z" fill="#394570"/>
<path d="M274.47 569.527C268.067 572.451 253.589 569.527 253.589 569.527L247.487 569.146C239.563 568.639 226.297 567.783 221.606 567.403C214.759 566.84 216.439 564.035 216.439 564.035V547.085L249.658 538.669C249.658 538.669 262.789 543.162 266.387 547.085C269.802 550.825 271.799 547.949 277.893 549.026C278.194 549.082 278.511 549.145 278.844 549.224C284.629 550.548 287.767 551.071 289.621 555.865C289.994 556.872 290.293 557.905 290.516 558.956C292.228 566.674 280.865 566.618 274.47 569.527Z" fill="#212A4B"/>
<path opacity="0.1" d="M289.621 555.865C288.431 556.609 287.179 557.25 285.881 557.783C281.522 559.772 277.378 562.197 272.972 564.075C268.566 565.953 263.819 567.292 259.049 566.935C256.552 566.753 254.001 566.143 251.616 566.856C250.14 567.426 248.751 568.196 247.487 569.146C239.563 568.639 226.297 567.783 221.606 567.403C214.759 566.84 216.439 564.035 216.439 564.035V562.054C216.685 562.054 216.962 561.983 217.279 561.959C218.919 561.933 220.552 562.176 222.113 562.68C225.552 563.615 228.976 564.534 232.415 565.454C232.698 564.386 233.195 563.387 233.876 562.518C234.557 561.649 235.408 560.928 236.377 560.398C238.34 559.356 240.543 558.85 242.764 558.932C248.097 559.003 253.145 561.531 258.47 561.785C259.959 561.921 261.458 561.67 262.821 561.056C263.55 560.691 264.192 560.16 264.905 559.756C266.046 559.204 267.252 558.796 268.495 558.543C271.987 557.674 275.415 556.568 278.757 555.231C279.708 554.859 280.817 554.185 280.69 553.171C280.524 551.824 278.408 551.665 277.853 550.429C277.755 550.206 277.71 549.963 277.721 549.72C277.732 549.477 277.799 549.239 277.917 549.026C278.218 549.082 278.535 549.145 278.868 549.224C284.629 550.548 287.767 551.071 289.621 555.865Z" fill="#1A202C"/>
<path d="M267.702 606.613C260.174 610.052 243.136 606.613 243.136 606.613L235.965 606.193C226.678 605.599 211.035 604.608 205.511 604.14C197.452 603.475 199.433 600.178 199.433 600.178V580.201L238.524 570.295C238.524 570.295 253.977 575.581 258.209 580.201C262.226 584.599 264.548 581.215 271.752 582.483C272.108 582.546 272.481 582.626 272.869 582.713C279.676 584.298 283.369 584.892 285.548 590.534C285.989 591.719 286.341 592.935 286.602 594.172C288.567 603.253 275.23 603.182 267.702 606.613Z" fill="#212A4B"/>
<path opacity="0.1" d="M285.532 590.534C284.132 591.409 282.661 592.164 281.134 592.793C276.007 595.13 271.125 597.983 265.943 600.194C260.76 602.405 255.174 603.974 249.555 603.562C246.623 603.348 243.62 602.611 240.838 603.467C239.096 604.146 237.455 605.063 235.965 606.193C226.678 605.599 211.035 604.608 205.511 604.14C197.452 603.475 199.433 600.178 199.433 600.178V597.848C199.762 597.795 200.092 597.758 200.424 597.738C202.354 597.702 204.277 597.989 206.114 598.585L218.23 601.85C218.568 600.591 219.158 599.414 219.966 598.39C220.774 597.367 221.783 596.519 222.929 595.899C225.239 594.668 227.834 594.072 230.45 594.172C236.726 594.259 242.661 597.23 248.929 597.532C250.675 597.691 252.432 597.399 254.033 596.684C254.896 596.248 255.617 595.622 256.489 595.154C257.829 594.498 259.249 594.018 260.713 593.728C264.799 592.697 268.813 591.394 272.726 589.829C273.844 589.385 275.151 588.593 275.001 587.404C274.802 585.819 272.314 585.629 271.656 584.171C271.546 583.908 271.495 583.623 271.509 583.338C271.523 583.053 271.6 582.774 271.736 582.523C272.092 582.586 272.465 582.665 272.853 582.752C279.66 584.274 283.353 584.892 285.532 590.534Z" fill="#1A202C"/>
<path d="M250.665 469.529L248.549 519.318C248.549 519.318 245.379 529.485 247.099 532.393C248.818 535.301 251.719 538.201 250.665 539.921C249.611 541.641 236.932 560.231 232.835 553.099C228.738 545.967 224.696 515.062 224.696 515.062L228.476 476.89L250.665 469.529Z" fill="#394570"/>
<path d="M259.841 345.48L265.721 353.341V421.713C265.721 421.713 267.441 439.939 265.721 443.703C264.001 447.467 255.285 454.995 255.285 454.995L247.955 417.354L249.539 377.534L259.841 345.48Z" fill="#394570"/>
<path opacity="0.1" d="M250.665 469.529L248.549 519.318C248.549 519.318 245.379 529.485 247.099 532.393C248.818 535.301 251.719 538.201 250.665 539.921C249.611 541.641 236.932 560.231 232.835 553.099C228.738 545.967 224.696 515.062 224.696 515.062L228.476 476.89L250.665 469.529Z" fill="#1A202C"/>
<path opacity="0.1" d="M259.841 345.48L265.721 353.341V421.713C265.721 421.713 267.441 439.939 265.721 443.703C264.001 447.467 255.285 454.995 255.285 454.995L247.955 417.354L249.539 377.534L259.841 345.48Z" fill="#1A202C"/>
<path d="M265.721 316.318V353.301L259.12 382.091C259.12 382.091 257.004 451.564 258.851 460.012C260.697 468.459 252.511 476.391 252.511 476.391C252.511 476.391 247.756 476.922 247.756 480.615C247.756 484.308 239.832 494.879 239.832 494.879L240.094 515.482C240.094 515.482 243.533 554.05 238.247 561.444C232.962 568.837 240.094 569.899 240.094 569.899C233.492 591.557 201.795 586.54 198.934 584.163C196.073 581.786 198.934 535.032 198.934 535.032C198.934 535.032 206.019 463.712 211.566 460.542C217.113 457.373 211.835 453.41 213.681 448.656C215.528 443.901 211.835 430.961 211.835 430.961C211.835 430.961 210.25 415.635 206.288 408.241C202.326 400.848 202.849 380.506 202.849 380.506C202.849 380.506 191.755 365.711 188.458 359.903C185.162 354.094 183.038 339.038 183.83 327.674C184.369 319.995 188.403 308.814 190.962 302.379C192.191 299.297 193.078 297.3 193.078 297.3L193.831 297.498L237.114 308.83L265.721 316.318Z" fill="#394570"/>
<path opacity="0.1" d="M269.747 139.604C265.658 140.777 261.751 144.803 258.351 149.692H257.464C252.481 149.695 247.585 148.384 243.272 145.889C238.958 143.394 235.38 139.805 232.898 135.483C231.861 133.693 231.026 131.793 230.41 129.818C232.859 123.597 234.673 118.192 234.673 118.192C234.673 118.192 282.228 136.038 269.747 139.604Z" fill="#1A202C"/>
<path d="M285.794 119.793C285.801 124.129 284.812 128.409 282.905 132.303C280.997 136.196 278.221 139.6 274.791 142.252C271.361 144.904 267.367 146.733 263.119 147.599C258.87 148.464 254.479 148.343 250.285 147.244C246.09 146.145 242.204 144.098 238.925 141.261C235.647 138.424 233.063 134.872 231.374 130.879C229.684 126.885 228.933 122.558 229.18 118.229C229.426 113.9 230.663 109.685 232.795 105.91C233.654 104.376 234.657 102.927 235.791 101.583C237.659 99.3566 239.856 97.4274 242.304 95.8615C246.441 93.2331 251.188 91.7226 256.082 91.4775C260.977 91.2325 265.851 92.2613 270.229 94.4635C274.607 96.6657 278.339 99.9658 281.06 104.042C283.781 108.117 285.398 112.829 285.754 117.717C285.77 118.414 285.794 119.104 285.794 119.793Z" fill="#EFB7B9"/>
<path d="M261.989 187.61L261.894 188.482L248.715 167.878C247.336 171.135 246.568 173.315 246.568 173.315C246.568 173.315 215.266 149.747 220.219 148.163C221.883 147.632 224.07 144.066 226.234 139.572L226.503 139.002C228.801 145.849 242.154 159.534 247.709 165.018C248.351 165.652 248.882 166.175 249.294 166.555L250.142 167.347L250.585 167.791C252.606 169.875 261.133 179.068 261.989 187.61Z" fill="#CBD5E0"/>
<path d="M271.839 257.519L270.396 303.933L270.143 312.198C270.143 312.198 253.058 310.613 237.114 308.869C224.276 307.467 212.176 305.953 210.314 305.066C207.936 303.948 202.841 303.085 198.823 302.538C195.717 302.118 193.276 301.896 193.276 301.896C193.276 301.896 192.365 302.165 190.962 302.419C187.903 302.974 182.531 303.425 179.401 300.707C175.399 297.228 185.914 284.589 188.537 281.554L189.116 280.896L188.125 271.744L185.55 248.01C185.55 248.01 183.965 234.34 181.588 227.01C180.952 224.926 180.494 222.792 180.217 220.631C179.333 213.936 179.786 207.133 181.548 200.614C182.301 197.844 182.779 195.007 182.974 192.143C183.371 184.813 205.757 156.483 211.304 153.908C213.8 152.744 215.807 150.742 216.978 148.25C217.365 147.466 217.655 146.639 217.842 145.785C220.219 135.483 226.234 139.572 226.234 139.572C227.684 147.632 250.134 168.964 250.134 168.964L250.578 169.408C252.804 171.69 262.726 182.404 262.02 191.549C261.879 194.952 262.388 198.352 263.518 201.565C268.085 215.944 270.71 230.868 271.324 245.942L271.839 257.519Z" fill="#EDF2F7"/>
<path d="M240.03 202.405C240.03 202.405 234.483 215.877 230.323 218.056C226.162 220.235 242.011 222.652 240.03 202.405Z" fill="#CBD5E0"/>
<path d="M244.19 227.565C244.19 227.565 231.511 229.15 231.511 231.527C231.511 233.905 244.19 227.565 244.19 227.565Z" fill="#CBD5E0"/>
<path d="M257.464 243.018C257.464 243.018 239.04 282.243 233.889 283.432C228.738 284.621 257.464 243.018 257.464 243.018Z" fill="#CBD5E0"/>
<path d="M249.785 170.953L234.546 177.578L216.154 149.795C216.54 149.011 216.83 148.184 217.018 147.33C219.395 137.029 225.41 141.118 225.41 141.118C226.86 149.177 249.31 170.509 249.31 170.509L249.785 170.953Z" fill="#CBD5E0"/>
<path d="M250.578 169.368L235.339 175.993L216.946 148.21C217.333 147.426 217.623 146.599 217.81 145.746C220.187 135.444 226.202 139.533 226.202 139.533C227.652 147.592 250.102 168.924 250.102 168.924L250.578 169.368Z" fill="#EDF2F7"/>
<path d="M270.143 312.198C270.143 312.198 253.058 310.613 237.114 308.869L265.721 316.358V325.075C264.469 326.208 263.383 326.794 262.678 326.493C259.381 325.107 232.478 320.748 232.478 320.748C232.478 320.748 216.851 312.824 199.988 303.314C199.579 303.088 199.182 302.839 198.799 302.57C196.833 301.235 195.139 299.538 193.807 297.569C190.693 293.06 189.171 287.267 188.514 281.586C188.144 278.329 188.006 275.051 188.102 271.775C188.183 268.061 188.522 264.357 189.116 260.689C187.485 246.484 186.691 232.195 186.739 217.897C186.937 195.709 207.738 187.785 207.738 187.785C245.973 184.417 234.119 246.227 234.119 246.227C234.119 246.227 231.908 263.661 231.305 265.444C230.703 267.227 228.54 270.198 228.833 274.359C229.126 278.519 236.432 283.495 236.432 283.495C236.432 283.495 243.564 286.84 246.504 291.792C248.644 295.445 262.543 300.398 270.396 303.933L270.143 312.198Z" fill="#CBD5E0"/>
<path opacity="0.1" d="M282.949 102.201C282.963 103.506 282.693 104.799 282.156 105.989C281.75 106.96 281.279 107.902 280.746 108.81C279.912 110.479 278.728 111.95 277.275 113.121C275.444 114.428 273.13 114.793 270.935 115.324C268.74 115.855 266.458 116.703 265.206 118.573C264.527 119.775 264.074 121.091 263.867 122.456C263.657 123.82 263.112 125.11 262.282 126.212C261.849 126.75 261.251 127.129 260.579 127.29C259.908 127.45 259.202 127.383 258.573 127.099C257.91 126.653 257.408 126.006 257.139 125.253C256.236 123.217 256.006 120.958 255.641 118.763C255.277 116.568 254.762 114.309 253.414 112.542C252.067 110.775 249.682 109.61 247.566 110.3C246.858 110.572 246.212 110.985 245.668 111.514C245.123 112.042 244.691 112.675 244.396 113.374C243.811 114.775 243.409 116.245 243.2 117.749C242.217 123.127 241.058 128.473 239.721 133.788C239.68 134.006 239.591 134.211 239.46 134.39C239.249 134.6 238.965 134.719 238.667 134.723C236.892 134.96 235.188 133.716 233.397 133.851C233.213 133.863 233.03 133.893 232.851 133.938C229.955 128.906 228.677 123.105 229.188 117.322C229.7 111.539 231.977 106.052 235.711 101.607L235.854 101.567C237.045 101.144 238.128 100.462 239.024 99.5701C240.168 98.4254 241.227 97.1992 242.193 95.9011L242.827 95.1087C244.649 92.9143 246.724 90.9433 249.008 89.2367C249.632 88.7257 250.348 88.3384 251.116 88.0956C251.774 87.9674 252.449 87.946 253.113 88.0322C255.85 88.3607 258.609 88.4641 261.363 88.3412C263.281 88.0396 265.215 87.8439 267.155 87.7548C272.171 87.8975 276.451 91.4397 279.62 95.3226C281.324 97.3117 282.846 99.6018 282.949 102.201Z" fill="#1A202C"/>
<path d="M229.094 106.662C227.993 108.469 226.004 109.697 225.259 111.679C224.165 114.555 226.012 118.137 224.316 120.704C223.753 121.568 222.826 122.21 222.509 123.201C221.97 124.873 223.444 126.656 223.064 128.375C222.684 130.095 220.417 131.545 221.019 133.225C221.375 133.958 222 134.525 222.763 134.81C223.964 135.499 225.346 135.806 226.725 135.69C228.888 135.333 230.497 133.209 232.692 133.051C234.475 132.924 236.179 134.16 237.954 133.93C238.251 133.92 238.534 133.798 238.746 133.59C238.881 133.413 238.971 133.206 239.008 132.987C240.339 127.678 241.501 122.332 242.495 116.948C242.697 115.444 243.097 113.974 243.683 112.574C243.98 111.876 244.413 111.244 244.957 110.716C245.502 110.188 246.146 109.774 246.853 109.499C248.969 108.818 251.346 109.975 252.701 111.742C254.056 113.509 254.571 115.768 254.936 117.963C255.3 120.158 255.53 122.416 256.426 124.453C256.698 125.208 257.203 125.857 257.868 126.307C259.057 126.996 260.657 126.45 261.569 125.419C262.403 124.317 262.948 123.023 263.154 121.655C263.36 120.293 263.814 118.98 264.493 117.78C265.745 115.91 268.035 115.062 270.222 114.531C272.409 114 274.715 113.628 276.562 112.32C278.013 111.151 279.196 109.683 280.032 108.018C281.205 105.973 282.299 103.754 282.204 101.401C282.101 98.8331 280.579 96.543 278.955 94.546C275.785 90.6631 271.498 87.1209 266.482 86.9861C264.541 87.0673 262.607 87.2631 260.689 87.5725C257.935 87.6964 255.176 87.5904 252.44 87.2556C251.774 87.176 251.101 87.2 250.443 87.3269C249.673 87.562 248.959 87.9501 248.343 88.468C246.056 90.1718 243.978 92.1402 242.154 94.3321C240.977 95.8919 239.702 97.3742 238.334 98.7697C237.438 99.6631 236.356 100.348 235.165 100.775C234.372 100.996 233.58 100.838 232.827 101.084C230.489 101.821 230.18 104.872 229.094 106.662Z" fill="#1A202C"/>
<path opacity="0.1" d="M305.406 128.209C299.067 129.374 293.813 124.247 290.905 120.506C290.012 119.37 289.199 118.174 288.472 116.925L310.232 121.029L311.112 121.196C311.112 121.196 315.114 126.434 305.406 128.209Z" fill="#1A202C"/>
<g opacity="0.1">
<path opacity="0.1" d="M223.064 126.109C223.153 125.073 222.995 124.03 222.604 123.066C222.604 123.145 222.533 123.224 222.509 123.304C222.168 124.366 222.628 125.467 222.921 126.569C222.984 126.421 223.032 126.267 223.064 126.109V126.109Z" fill="#1A202C"/>
<path opacity="0.1" d="M224.95 113.137C224.868 114.232 224.89 115.333 225.013 116.425C225.095 115.329 225.073 114.229 224.95 113.137Z" fill="#1A202C"/>
<path opacity="0.1" d="M279.985 105.727C279.151 107.397 277.967 108.867 276.514 110.038C274.684 111.346 272.378 111.71 270.175 112.241C267.972 112.772 265.697 113.62 264.445 115.49C263.768 116.693 263.314 118.009 263.106 119.373C262.9 120.74 262.355 122.034 261.521 123.137C260.61 124.167 259.009 124.722 257.82 124.025C257.155 123.575 256.65 122.926 256.378 122.17C255.483 120.134 255.245 117.883 254.888 115.68C254.532 113.477 254.001 111.227 252.654 109.46C251.307 107.693 248.921 106.528 246.805 107.217C246.098 107.491 245.453 107.904 244.908 108.432C244.364 108.961 243.931 109.593 243.636 110.292C243.049 111.691 242.649 113.162 242.447 114.666C241.459 120.049 240.297 125.396 238.96 130.705C238.923 130.924 238.833 131.131 238.699 131.307C238.487 131.516 238.204 131.638 237.906 131.648C236.131 131.878 234.428 130.642 232.645 130.768C230.45 130.927 228.841 133.051 226.677 133.399C225.298 133.523 223.913 133.216 222.715 132.52C222.164 132.283 221.67 131.932 221.265 131.49C221.08 131.755 220.957 132.059 220.906 132.379C220.855 132.699 220.878 133.026 220.972 133.336C221.321 134.074 221.948 134.643 222.715 134.921C223.913 135.617 225.298 135.924 226.677 135.8C228.841 135.452 230.45 133.328 232.645 133.17C234.428 133.043 236.131 134.279 237.906 134.049C238.204 134.039 238.487 133.917 238.699 133.708C238.833 133.532 238.923 133.325 238.96 133.106C240.292 127.823 241.454 122.477 242.447 117.067C242.649 115.563 243.049 114.092 243.636 112.693C243.931 111.994 244.364 111.362 244.908 110.834C245.453 110.305 246.098 109.892 246.805 109.618C248.921 108.929 251.299 110.094 252.654 111.861C254.009 113.628 254.524 115.886 254.888 118.081C255.253 120.277 255.483 122.535 256.378 124.572C256.65 125.327 257.155 125.976 257.82 126.426C259.009 127.115 260.61 126.569 261.521 125.538C262.355 124.435 262.9 123.141 263.106 121.774C263.314 120.41 263.768 119.094 264.445 117.891C265.697 116.021 267.987 115.181 270.175 114.642C272.362 114.103 274.668 113.747 276.514 112.439C277.967 111.268 279.151 109.798 279.985 108.128C281.158 106.092 282.251 103.873 282.156 101.52C282.141 101.217 282.109 100.915 282.061 100.616C281.679 102.43 280.976 104.161 279.985 105.727V105.727Z" fill="#1A202C"/>
</g>
<path opacity="0.1" d="M282.188 105.965C284.22 109.578 285.425 113.598 285.714 117.733C278.654 113.771 272.013 109.42 268.661 107.907C262.821 105.268 240.981 105.664 232.771 105.91C233.63 104.376 234.633 102.927 235.767 101.583C237.643 99.3548 239.847 97.4255 242.304 95.8615C245.559 93.7963 249.2 92.4164 253.005 91.8062C256.811 91.1959 260.701 91.3682 264.437 92.3124C268.174 93.2565 271.679 94.9528 274.738 97.2976C277.797 99.6423 280.345 102.586 282.228 105.949L282.188 105.965Z" fill="#1A202C"/>
<path opacity="0.1" d="M307.388 124.849C303.576 126.022 297.355 123.755 290.905 120.506C290.012 119.37 289.199 118.174 288.472 116.925L310.232 121.029C311.675 122.012 312.039 123.415 307.388 124.849Z" fill="#1A202C"/>
<path d="M259.152 78.4912C259.152 78.4912 238.35 77.3026 232.502 88.5948L231.559 98.6033L229.974 98.429L229.657 105.236C229.657 105.236 261.45 103.849 268.685 107.114C275.92 110.379 298.401 126.83 307.411 124.057C316.421 121.283 306.619 118.708 306.619 118.708C306.619 118.708 294.217 113.454 294.217 109.333C294.217 105.212 291.142 83.444 259.152 78.4912Z" fill="#394570"/>
<path opacity="0.1" d="M219.03 449.512C219.03 449.512 232.304 462.389 238.049 461.398C238.049 461.398 221.804 460.011 219.03 449.512Z" fill="#1A202C"/>
<path opacity="0.1" d="M216.257 455.479C216.257 455.479 217.446 462.103 220.615 461.454C223.785 460.804 216.257 455.479 216.257 455.479Z" fill="#1A202C"/>
<path opacity="0.1" d="M237.058 566.198C237.058 566.198 218.214 580.859 221.392 581.255C224.57 581.651 237.058 566.198 237.058 566.198Z" fill="#1A202C"/>
<path d="M262.266 275.238L323.284 265.309V323.078L265.309 320.043L262.266 275.238Z" fill="#7F9CF5"/>
<path opacity="0.05" d="M262.266 275.238L323.284 265.309V323.078L265.309 320.043L262.266 275.238Z" fill="#1A202C"/>
<path d="M323.284 265.309L396.458 270.785L392.408 321.057L323.284 323.078V265.309Z" fill="#7F9CF5"/>
<path opacity="0.1" d="M323.284 265.309L396.458 270.785L392.408 321.057L323.284 323.078V265.309Z" fill="#1A202C"/>
<path d="M345.781 247.677L323.284 265.309L396.458 270.785L408.416 252.741L345.781 247.677Z" fill="#7F9CF5"/>
<path d="M240.173 255.982L295.105 249.294L323.284 265.309L262.266 275.238L240.173 255.982Z" fill="#7F9CF5"/>
<path d="M336.66 280.31V359.292L308.077 356.36L295.644 355.092L291.856 354.696L279.43 353.42L262.266 351.661V275.238L323.276 279.391L336.66 280.31Z" fill="#7F9CF5"/>
<path d="M396.458 270.785V347.81L373.548 352.208L362.407 354.348L336.66 359.292V280.31L396.458 270.785Z" fill="#7F9CF5"/>
<path opacity="0.05" d="M396.458 270.785V347.81L373.548 352.208L362.407 354.348L336.66 359.292V280.31L396.458 270.785Z" fill="#1A202C"/>
<path d="M240.173 291.864L262.266 275.238L336.66 280.31L325.709 298.758L240.173 291.864Z" fill="#7F9CF5"/>
<path opacity="0.1" d="M240.173 291.864L262.266 275.238L336.66 280.31L325.709 298.758L240.173 291.864Z" fill="white"/>
<path d="M396.458 270.785L336.66 280.31L356.123 297.744L420.176 286.998L396.458 270.785Z" fill="#7F9CF5"/>
<path opacity="0.1" d="M396.458 270.785L336.66 280.31L356.123 297.744L420.176 286.998L396.458 270.785Z" fill="white"/>
<path opacity="0.1" d="M373.548 352.208L362.407 354.348V337.889L372.843 335.258L373.548 352.208Z" fill="white"/>
<path opacity="0.1" d="M308.077 345.472V356.36L295.644 355.092V345.472H308.077Z" fill="white"/>
<path opacity="0.1" d="M291.856 348.903V354.696L279.43 353.42V348.903H291.856Z" fill="white"/>
<path opacity="0.1" d="M329.18 339.695C320.661 350.591 292.529 343.063 292.529 343.063L271.625 321.255L268.788 318.299L274.335 307.998C274.335 307.998 275.92 308.521 278.566 309.44C292.577 314.337 336.351 330.527 329.18 339.695Z" fill="#1A202C"/>
<path d="M328.387 338.11C319.868 349.006 291.737 341.478 291.737 341.478L270.832 319.67L267.995 316.715L273.542 306.413C273.542 306.413 275.127 306.936 277.774 307.855C291.784 312.752 335.559 328.942 328.387 338.11Z" fill="#EFB7B9"/>
<path opacity="0.1" d="M277.742 307.855C276.585 311.183 273.645 316.112 270.801 319.67L267.964 316.715L273.511 306.413C273.511 306.413 275.104 306.936 277.742 307.855Z" fill="#1A202C"/>
<path d="M208.531 184.615C208.531 184.615 187.729 192.539 187.531 214.728C187.484 229.026 188.277 243.314 189.908 257.519C189.908 257.519 183.965 290.604 200.804 300.113C217.644 309.622 233.294 317.547 233.294 317.547C233.294 317.547 260.198 321.905 263.502 323.292C266.807 324.679 278.289 306.849 276.506 303.877C274.723 300.905 250.229 293.575 247.321 288.623C244.412 283.67 237.249 280.334 237.249 280.334C237.249 280.334 229.942 275.349 229.649 271.189C229.356 267.029 231.511 264.057 232.122 262.274C232.732 260.491 234.943 243.057 234.943 243.057C234.943 243.057 246.766 181.207 208.531 184.615Z" fill="#EDF2F7"/>
<path d="M218.04 258.074C218.04 258.074 189.908 261.244 192.087 271.149C192.087 271.149 202.777 261.157 218.04 258.074Z" fill="#CBD5E0"/>
<path d="M218.04 262.036C218.04 262.036 202.072 273.725 205.004 274.517C207.936 275.31 218.04 262.036 218.04 262.036Z" fill="#CBD5E0"/>
<path d="M225.172 266.791C225.172 266.791 220.615 274.985 223.191 274.557C225.766 274.129 225.172 266.791 225.172 266.791Z" fill="#CBD5E0"/>
<path d="M518.074 89.0624C518.074 89.0624 487.961 87.2477 491.479 108.374C491.479 108.374 490.774 112.107 494.158 113.802C494.158 113.802 494.213 112.217 497.248 112.764C498.329 112.946 499.428 112.999 500.521 112.923C502.003 112.824 503.411 112.242 504.531 111.267V111.267C504.531 111.267 513.002 107.772 516.299 93.92C516.299 93.92 518.739 90.8929 518.676 90.1163L513.588 92.2955C513.588 92.2955 515.324 95.9645 513.953 99.0154C513.953 99.0154 513.794 92.4302 512.812 92.5808C512.614 92.5808 510.173 93.8566 510.173 93.8566C510.173 93.8566 513.16 100.244 510.902 104.895C510.902 104.895 511.758 97.0185 509.238 94.3162L505.656 96.4083C505.656 96.4083 509.151 103.009 506.781 108.398C506.781 108.398 507.392 100.133 504.903 96.9154L501.654 99.4433C501.654 99.4433 504.943 105.957 502.938 110.427C502.938 110.427 502.677 100.806 500.949 100.077C500.949 100.077 498.112 102.581 497.684 103.612C497.684 103.612 499.927 108.366 498.532 110.831C498.532 110.831 497.676 104.42 496.947 104.388C496.947 104.388 494.118 108.636 493.825 111.52C493.962 108.831 494.801 106.225 496.258 103.96C494.627 104.269 493.123 105.048 491.931 106.203C491.931 106.203 492.367 103.199 496.955 102.938C496.955 102.938 499.332 99.7127 499.919 99.5146C499.919 99.5146 495.354 99.1343 492.589 100.363C492.589 100.363 495.022 97.5335 500.759 98.7777L503.929 96.1626C503.929 96.1626 497.922 95.3702 495.37 96.2498C495.37 96.2498 498.302 93.7457 504.792 95.5683L508.279 93.4842C508.279 93.4842 503.16 92.3748 500.109 92.7789C500.109 92.7789 503.326 91.0434 509.301 92.9215L511.797 91.8042C511.797 91.8042 508.041 91.0672 506.948 90.9484C505.854 90.8295 505.791 90.5284 505.791 90.5284C508.167 90.1329 510.607 90.4073 512.836 91.3208C512.836 91.3208 518.185 89.3952 518.074 89.0624Z" fill="#6A66EA"/>
<path opacity="0.2" d="M609.569 194.726C609.569 194.726 579.456 192.912 582.974 214.038C582.974 214.038 582.269 217.77 585.653 219.466C585.653 219.466 585.708 217.881 588.751 218.428C589.832 218.61 590.931 218.663 592.024 218.587C593.488 218.481 594.879 217.902 595.986 216.938V216.938C595.986 216.938 604.465 213.436 607.762 199.584C607.762 199.584 610.195 196.565 610.1 195.788L605.012 197.959C605.012 197.959 606.748 201.628 605.385 204.679C605.385 204.679 605.218 198.094 604.244 198.245C604.045 198.245 601.597 199.521 601.597 199.521C601.597 199.521 604.592 205.916 602.334 210.559C602.334 210.559 603.19 202.682 600.662 199.98L597.119 202.048C597.119 202.048 600.614 208.649 598.245 214.038C598.245 214.038 598.855 205.773 596.367 202.556L593.126 205.091C593.126 205.091 596.406 211.597 594.409 216.067C594.409 216.067 594.148 206.447 592.42 205.717C592.42 205.717 589.583 208.222 589.148 209.252C589.148 209.252 591.398 214.006 590.003 216.471C590.003 216.471 589.148 210.06 588.419 210.028C588.419 210.028 585.59 214.276 585.296 217.16C585.438 214.471 586.279 211.865 587.737 209.6C586.104 209.91 584.598 210.689 583.402 211.843C583.402 211.843 583.846 208.84 588.434 208.578C588.434 208.578 590.772 205.353 591.398 205.155C591.398 205.155 586.834 204.774 584.068 206.003C584.068 206.003 586.501 203.174 592.23 204.457L595.4 201.842C595.4 201.842 589.385 201.05 586.842 201.93C586.842 201.93 589.774 199.425 596.264 201.248L599.75 199.164C599.75 199.164 594.623 198.062 591.572 198.459C591.572 198.459 594.798 196.723 600.773 198.601L603.269 197.484C603.269 197.484 599.513 196.747 598.411 196.628C597.31 196.509 597.254 196.208 597.254 196.208C599.633 195.812 602.075 196.087 604.307 197.001C604.307 197.001 609.664 195.059 609.569 194.726Z" fill="#6A66EA"/>
<path opacity="0.2" d="M426.634 175.969C426.634 175.969 433.568 146.578 412.14 146.475C412.14 146.475 408.582 145.143 406.34 148.186C406.34 148.186 407.869 148.511 406.831 151.412C406.472 152.437 406.232 153.501 406.118 154.581C405.964 156.054 406.295 157.537 407.061 158.805V158.805C407.061 158.805 409.066 167.76 422.117 173.37C422.117 173.37 424.685 176.286 425.461 176.318L424.193 170.937C424.193 170.937 420.279 172.023 417.505 170.145C417.505 170.145 424.027 171.104 424.035 170.145C424.035 169.947 423.242 167.324 423.242 167.324C423.242 167.324 416.435 169.178 412.235 166.159C412.235 166.159 419.851 168.346 422.949 166.325L421.523 162.426C421.523 162.426 414.391 164.748 409.509 161.491C409.509 161.491 417.553 163.504 421.15 161.602L419.209 157.973C419.209 157.973 412.235 160.097 408.17 157.363C408.17 157.363 417.679 158.742 418.71 157.173C418.71 157.173 416.728 153.947 415.785 153.345C415.785 153.345 410.746 154.756 408.527 152.957C408.527 152.957 414.985 153.202 415.136 152.521C415.136 152.521 411.435 149.01 408.614 148.218C411.243 148.817 413.671 150.089 415.659 151.911C415.63 150.25 415.117 148.634 414.185 147.259C414.185 147.259 417.069 148.21 416.562 152.806C416.562 152.806 419.336 155.659 419.423 156.309C419.423 156.309 420.572 151.879 419.835 148.939C419.835 148.939 422.212 151.824 419.97 157.252L421.998 160.857C421.998 160.857 423.837 155.073 423.369 152.41C423.369 152.41 425.342 155.722 422.434 161.808L423.9 165.604C423.9 165.604 425.857 160.739 425.984 157.68C425.984 157.68 427.149 161.151 424.272 166.721L424.954 169.368C424.954 169.368 426.317 165.794 426.618 164.732C426.919 163.671 427.228 163.663 427.228 163.663C427.216 166.073 426.533 168.433 425.255 170.478C425.255 170.478 426.293 176.009 426.634 175.969Z" fill="#6A66EA"/>
<path opacity="0.2" d="M360.687 185.986C360.687 185.986 336.502 167.894 327.856 187.491C327.856 187.491 325.217 190.225 327.111 193.498C327.111 193.498 328.015 192.222 330.281 194.338C331.084 195.085 331.972 195.734 332.928 196.272C334.222 196.992 335.716 197.271 337.183 197.064V197.064C337.183 197.064 346.185 198.799 356.551 189.045C356.551 189.045 360.251 187.856 360.6 187.159L355.14 186.2C355.14 186.2 354.569 190.217 351.756 192.016C351.756 192.016 355.235 186.422 354.332 186.017C354.149 185.93 351.423 185.621 351.423 185.621C351.423 185.621 350.409 192.611 345.971 195.249C345.971 195.249 351.019 189.14 350.393 185.494L346.249 185.272C346.249 185.272 345.544 192.714 340.599 195.915C340.599 195.915 345.647 189.346 345.353 185.288L341.248 185.621C341.248 185.621 340.416 192.856 336.288 195.487C336.288 195.487 341.352 187.309 340.313 185.756C340.313 185.756 336.565 186.287 335.638 186.905C335.638 186.905 334.917 192.087 332.381 193.403C332.381 193.403 335.194 187.579 334.624 187.174C334.624 187.174 329.925 189.163 328.078 191.43C329.675 189.26 331.811 187.544 334.275 186.453C332.742 185.816 331.057 185.64 329.425 185.946C329.425 185.946 331.438 183.68 335.416 185.986C335.416 185.986 339.141 184.583 339.775 184.757C339.775 184.757 336.169 181.928 333.181 181.437C333.181 181.437 336.779 180.407 340.86 184.607L344.973 184.187C344.973 184.187 340.401 180.225 337.778 179.559C337.778 179.559 341.605 179.076 346.019 184.163L350.076 184.345C350.076 184.345 346.407 180.605 343.642 179.258C343.642 179.258 347.279 179.575 351.241 184.433L353.943 184.868C353.943 184.868 351.209 182.19 350.354 181.493C349.498 180.795 349.617 180.502 349.617 180.502C351.821 181.478 353.711 183.047 355.077 185.035C355.077 185.035 360.584 186.311 360.687 185.986Z" fill="#6A66EA"/>
<path opacity="0.2" d="M441.207 17.9012C441.207 17.9012 417.022 -0.198131 408.376 19.4068C408.376 19.4068 405.737 22.1408 407.631 25.4135C407.631 25.4135 408.535 24.1377 410.801 26.2535C411.608 26.9965 412.499 27.6427 413.456 28.1792C414.75 28.9004 416.244 29.1787 417.711 28.9716V28.9716C417.711 28.9716 426.713 30.707 437.078 20.9442C437.078 20.9442 440.779 19.7634 441.12 19.0582L435.66 18.1152C435.66 18.1152 435.097 22.1328 432.276 23.9317C432.276 23.9317 435.763 18.3371 434.859 17.9329C434.677 17.8457 431.951 17.5367 431.951 17.5367C431.951 17.5367 430.905 24.5419 426.468 27.1648C426.468 27.1648 431.507 21.0551 430.889 17.4099L426.745 17.188C426.745 17.188 426.032 24.629 421.095 27.8226C421.095 27.8226 426.143 21.2532 425.849 17.1959L421.753 17.5288C421.753 17.5288 420.913 24.7717 416.784 27.4026C416.784 27.4026 421.856 19.2246 420.817 17.6714C420.817 17.6714 417.069 18.2023 416.142 18.8204C416.142 18.8204 415.421 24.003 412.885 25.3184C412.885 25.3184 415.698 19.494 415.128 19.0819C415.128 19.0819 410.429 21.0789 408.582 23.3453C410.177 21.173 412.314 19.457 414.779 18.3687C413.245 17.7269 411.555 17.5505 409.921 17.8616C409.921 17.8616 411.942 15.5952 415.92 17.9012C415.92 17.9012 419.645 16.4907 420.279 16.6729C420.279 16.6729 416.673 13.8439 413.686 13.3447C413.686 13.3447 417.275 12.3224 421.356 16.5144L425.469 16.0944C425.469 16.0944 420.905 12.1322 418.274 11.4587C418.274 11.4587 422.101 10.9832 426.523 16.0707L430.58 16.245C430.58 16.245 426.911 12.5047 424.138 11.1655C424.138 11.1655 427.783 11.4824 431.745 16.3401L434.44 16.7759C434.44 16.7759 431.698 14.1292 430.842 13.4477C429.986 12.7662 430.105 12.4651 430.105 12.4651C432.31 13.4402 434.201 15.0097 435.565 16.9978C435.565 16.9978 441.072 18.2023 441.207 17.9012Z" fill="#6A66EA"/>
<path opacity="0.2" d="M533.621 40.8265C533.621 40.8265 523.953 12.2115 505.719 23.4562C505.719 23.4562 501.995 24.2486 501.702 27.981C501.702 27.981 503.168 27.4422 503.818 30.4534C504.059 31.5246 504.423 32.5643 504.903 33.5519C505.558 34.881 506.626 35.9624 507.946 36.6345V36.6345C507.946 36.6345 514.381 43.1721 528.455 41.0087C528.455 41.0087 532.171 42.134 532.853 41.7457L528.89 37.8548C528.89 37.8548 526.149 40.8423 522.804 40.7235C522.804 40.7235 528.851 38.0926 528.352 37.2447C528.249 37.0782 526.18 35.2794 526.18 35.2794C526.18 35.2794 521.378 40.454 516.227 40.1133C516.227 40.1133 523.843 37.942 525.396 34.5662L522.115 32.0383C522.115 32.0383 517.313 37.7597 511.425 37.5854C511.425 37.5854 519.349 35.0417 521.354 31.5232L517.788 29.4708C517.788 29.4708 513.034 34.9624 508.105 34.7881C508.105 34.7881 516.917 30.9289 516.94 29.0587C516.94 29.0587 513.557 27.3709 512.439 27.355C512.439 27.355 508.905 31.2142 506.1 30.8655C506.1 30.8655 511.71 27.6561 511.473 26.9984C511.473 26.9984 506.48 25.9762 503.667 26.8003C506.211 25.9144 508.943 25.7095 511.591 26.206C510.687 24.8105 509.396 23.7089 507.875 23.0362C507.875 23.0362 510.823 22.3151 512.796 26.4675C512.796 26.4675 516.663 27.4263 517.075 27.9256C517.075 27.9256 515.712 23.5592 513.533 21.4513C513.533 21.4513 517.075 22.6479 518.042 28.4406L521.671 30.4217C521.671 30.4217 520.174 24.5498 518.367 22.4973C518.367 22.4973 521.798 24.2724 522.543 30.9685L525.792 33.4172C525.792 33.4172 524.889 28.2505 523.367 25.572C523.367 25.572 526.188 27.9018 526.695 34.1541L528.669 36.0401C528.669 36.0401 527.939 32.284 527.638 31.2221C527.337 30.1602 527.583 30.0889 527.583 30.0889C528.843 32.1446 529.509 34.5088 529.509 36.9198C529.509 36.9198 533.344 41.0325 533.621 40.8265Z" fill="#6A66EA"/>
<path opacity="0.2" d="M470.527 42.237C470.527 42.237 440.494 38.8929 442.974 60.2017C442.974 60.2017 442.079 63.8944 445.351 65.7487C445.351 65.7487 445.486 64.1639 448.521 64.8771C449.594 65.1078 450.689 65.2168 451.786 65.202C453.268 65.1752 454.701 64.6661 455.867 63.7518V63.7518C455.867 63.7518 464.513 60.6851 468.546 47.0155C468.546 47.0155 471.129 44.1231 471.074 43.3385L465.884 45.2562C465.884 45.2562 467.468 49.0045 465.884 51.9841C465.884 51.9841 466.05 45.3989 465.091 45.5019C464.893 45.5019 462.389 46.643 462.389 46.643C462.389 46.643 465.051 53.1806 462.563 57.7372C462.563 57.7372 463.815 49.9079 461.43 47.0868L457.745 48.9886C457.745 48.9886 460.915 55.764 458.26 61.0258C458.26 61.0258 459.29 52.8003 456.969 49.4641L453.601 51.8414C453.601 51.8414 456.549 58.5058 454.322 62.8722C454.322 62.8722 454.552 53.252 452.864 52.4357C452.864 52.4357 449.9 54.8131 449.417 55.7957C449.417 55.7957 451.421 60.6296 449.908 63.0465C449.908 63.0465 449.377 56.604 448.68 56.5406C448.68 56.5406 445.637 60.6375 445.193 63.5299C445.468 60.8483 446.44 58.2855 448.014 56.0968C446.37 56.3241 444.827 57.0264 443.576 58.1175C443.576 58.1175 444.163 55.1459 448.759 55.1142C448.759 55.1142 451.255 52.0158 451.929 51.8493C451.929 51.8493 447.388 51.2392 444.559 52.3248C444.559 52.3248 447.134 49.6147 452.792 51.1916L456.129 48.743C456.129 48.743 450.098 47.5226 447.546 48.3151C447.546 48.3151 450.605 45.9377 456.992 48.117L460.582 46.2072C460.582 46.2072 455.518 44.8442 452.452 45.0898C452.452 45.0898 455.756 43.5049 461.628 45.7L464.18 44.7095C464.18 44.7095 460.463 43.7823 459.37 43.608C458.276 43.4336 458.236 43.1325 458.236 43.1325C460.632 42.8576 463.057 43.2526 465.242 44.2736C465.242 44.2736 470.583 42.5699 470.527 42.237Z" fill="#6A66EA"/>
<path opacity="0.2" d="M733.3 275.349C733.3 275.349 703.283 272.005 705.763 293.29C705.763 293.29 704.868 296.983 708.14 298.837C708.14 298.837 708.275 297.252 711.31 297.957C712.381 298.196 713.478 298.305 714.575 298.282C716.058 298.26 717.492 297.75 718.656 296.832V296.832C718.656 296.832 727.302 293.765 731.296 280.104C731.296 280.104 733.879 277.203 733.823 276.427L728.633 278.337C728.633 278.337 730.218 282.093 728.633 285.072C728.633 285.072 728.799 278.479 727.84 278.59C727.642 278.59 725.138 279.723 725.138 279.723C725.138 279.723 727.801 286.261 725.313 290.818C725.313 290.818 726.565 282.996 724.179 280.167L720.495 282.077C720.495 282.077 723.664 288.852 721.017 294.114C721.017 294.114 722.04 285.889 719.718 282.545L716.35 284.922C716.35 284.922 719.298 291.586 717.071 295.945C717.071 295.945 717.301 286.324 715.613 285.516C715.613 285.516 712.657 287.893 712.166 288.876C712.166 288.876 714.179 293.71 712.657 296.127C712.657 296.127 712.126 289.684 711.429 289.621C711.429 289.621 708.386 293.718 707.942 296.61C708.217 293.929 709.19 291.366 710.763 289.177C709.118 289.4 707.574 290.103 706.326 291.198C706.326 291.198 706.912 288.218 711.508 288.187C711.508 288.187 714.012 285.088 714.678 284.93C714.678 284.93 710.137 284.312 707.308 285.397C707.308 285.397 709.884 282.695 715.55 284.272L718.878 281.823C718.878 281.823 712.919 280.698 710.327 281.475C710.327 281.475 713.386 279.097 719.773 281.269L723.363 279.367C723.363 279.367 718.299 278.004 715.233 278.249C715.233 278.249 718.537 276.665 724.409 278.86L726.961 277.861C726.961 277.861 723.244 276.934 722.151 276.768C721.057 276.601 721.017 276.292 721.017 276.292C723.412 276.012 725.838 276.405 728.023 277.425C728.023 277.425 733.38 275.69 733.3 275.349Z" fill="#6A66EA"/>
<path opacity="0.2" d="M779.191 303.386C779.191 303.386 749.173 300.05 751.653 321.327C751.653 321.327 750.766 325.019 754.031 326.874C754.031 326.874 754.165 325.289 757.2 326.002C758.27 326.235 759.363 326.341 760.457 326.319C761.932 326.289 763.358 325.783 764.522 324.877V324.877C764.522 324.877 773.16 321.81 777.154 308.14C777.154 308.14 779.745 305.248 779.682 304.463L774.491 306.373C774.491 306.373 776.076 310.129 774.491 313.109C774.491 313.109 774.658 306.524 773.699 306.627C773.501 306.627 770.997 307.76 770.997 307.76C770.997 307.76 773.659 314.298 771.171 318.854C771.171 318.854 772.423 311.033 770.038 308.212L766.353 310.114C766.353 310.114 769.523 316.889 766.876 322.151C766.876 322.151 767.898 313.925 765.576 310.589L762.208 312.966C762.208 312.966 765.156 319.631 762.938 323.997C762.938 323.997 763.159 314.369 761.472 313.561C761.472 313.561 758.516 315.938 758.024 316.921C758.024 316.921 760.037 321.754 758.516 324.171C758.516 324.171 757.985 317.729 757.287 317.665C757.287 317.665 754.244 321.762 753.809 324.655C754.083 321.974 755.053 319.412 756.622 317.222C754.977 317.449 753.435 318.151 752.184 319.242C752.184 319.242 752.778 316.263 757.375 316.239C757.375 316.239 759.871 313.141 760.544 312.974C760.544 312.974 756.004 312.364 753.175 313.45C753.175 313.45 755.75 310.74 761.416 312.317L764.744 309.868C764.744 309.868 758.785 308.743 756.194 309.519C756.194 309.519 759.253 307.142 765.64 309.321L769.23 307.411C769.23 307.411 764.166 306.048 761.099 306.294C761.099 306.294 764.404 304.709 770.276 306.904L772.827 305.914C772.827 305.914 769.111 304.986 768.025 304.812C766.939 304.638 766.884 304.337 766.884 304.337C769.28 304.062 771.704 304.457 773.889 305.478C773.889 305.478 779.27 303.726 779.191 303.386Z" fill="#6A66EA"/>
<path opacity="0.2" d="M677.307 67.2306C677.307 67.2306 653.121 49.1392 644.476 68.7362C644.476 68.7362 641.837 71.4702 643.731 74.7429C643.731 74.7429 644.634 73.4671 646.901 75.5829C647.703 76.3298 648.592 76.9788 649.547 77.5165C650.842 78.2366 652.336 78.5148 653.803 78.3089V78.3089C653.803 78.3089 662.805 80.0444 673.178 70.2894C673.178 70.2894 676.871 69.1008 677.219 68.4034L671.775 67.4208C671.775 67.4208 671.205 71.4385 668.392 73.2373C668.392 73.2373 671.87 67.6427 670.967 67.2385C670.785 67.1514 668.067 66.8423 668.067 66.8423C668.067 66.8423 667.044 73.8316 662.607 76.4705C662.607 76.4705 667.655 70.3607 667.029 66.7155L662.884 66.4936C662.884 66.4936 662.179 73.9346 657.234 77.1361C657.234 77.1361 662.29 70.5668 661.989 66.5095L657.884 66.8423C657.884 66.8423 657.091 74.0773 652.923 76.7082C652.923 76.7082 657.995 68.5302 656.949 66.977C656.949 66.977 653.201 67.508 652.273 68.1261C652.273 68.1261 651.56 73.3086 649.024 74.6241C649.024 74.6241 651.83 68.7996 651.259 68.3955C651.259 68.3955 646.56 70.3845 644.714 72.6509C646.311 70.4809 648.447 68.7655 650.91 67.6744C649.378 67.0373 647.692 66.861 646.061 67.1672C646.061 67.1672 648.081 64.9008 652.059 67.2068C652.059 67.2068 655.776 65.8042 656.41 65.9785C656.41 65.9785 652.804 63.1495 649.817 62.6582C649.817 62.6582 653.414 61.6281 657.496 65.828L661.608 65.408C661.608 65.408 657.044 61.4458 654.413 60.7801C654.413 60.7801 658.24 60.2967 662.654 65.3842L666.72 65.5665C666.72 65.5665 663.043 61.8262 660.277 60.479C660.277 60.479 663.922 60.796 667.876 65.6537L670.579 66.0895C670.579 66.0895 667.845 63.411 666.989 62.7137C666.133 62.0163 666.26 61.7865 666.26 61.7865C668.461 62.7644 670.349 64.3334 671.712 66.3193C671.712 66.3193 677.204 67.5555 677.307 67.2306Z" fill="#6A66EA"/>
<path opacity="0.2" d="M695.992 197.841C695.992 197.841 687.656 168.814 668.907 179.234C668.907 179.234 665.151 179.813 664.683 183.569C664.683 183.569 666.173 183.101 666.688 186.136C666.879 187.227 667.198 188.291 667.639 189.306C668.227 190.672 669.245 191.807 670.539 192.539V192.539C670.539 192.539 676.673 199.354 690.826 197.833C690.826 197.833 694.487 199.116 695.184 198.768L691.436 194.695C691.436 194.695 688.559 197.563 685.231 197.294C685.231 197.294 691.38 194.916 690.905 194.069C690.81 193.894 688.829 192 688.829 192C688.829 192 683.805 196.961 678.67 196.383C678.67 196.383 686.38 194.56 688.076 191.279L684.906 188.601C684.906 188.601 679.85 194.1 673.978 193.672C673.978 193.672 681.966 191.477 684.169 188.062L680.698 185.851C680.698 185.851 675.666 191.121 670.785 190.724C670.785 190.724 679.763 187.262 679.874 185.399C679.874 185.399 676.562 183.561 675.444 183.497C675.444 183.497 671.744 187.19 668.93 186.715C668.93 186.715 674.684 183.759 674.478 183.093C674.478 183.093 669.533 181.849 666.688 182.539C669.264 181.775 671.996 181.695 674.612 182.309C673.774 180.875 672.534 179.718 671.046 178.981C671.046 178.981 674.026 178.386 675.801 182.626C675.801 182.626 679.613 183.751 680.009 184.274C680.009 184.274 678.844 179.844 676.76 177.649C676.76 177.649 680.246 178.996 680.952 184.829L684.486 186.976C684.486 186.976 683.25 181.033 681.538 178.941C681.538 178.941 684.882 180.867 685.334 187.586L688.504 190.178C688.504 190.178 687.83 184.979 686.435 182.253C686.435 182.253 689.154 184.71 689.375 190.97L691.261 192.951C691.261 192.951 690.707 189.163 690.469 188.086C690.231 187.008 690.469 186.857 690.469 186.857C691.642 188.965 692.204 191.358 692.093 193.767C692.093 193.767 695.707 198.031 695.992 197.841Z" fill="#6A66EA"/>
<path opacity="0.2" d="M510.228 263.249C510.228 263.249 494.039 237.748 479.006 253.01C479.006 253.01 475.567 254.595 476.169 258.359C476.169 258.359 477.477 257.488 478.824 260.261C479.308 261.244 479.909 262.165 480.615 263.003C481.56 264.147 482.855 264.949 484.3 265.285V265.285C484.3 265.285 492.105 270.103 505.26 264.651C505.26 264.651 509.135 264.857 509.705 264.326L504.951 261.474C504.951 261.474 502.994 265.039 499.721 265.713C499.721 265.713 504.967 261.751 504.261 261.022C504.127 260.879 501.686 259.627 501.686 259.627C501.686 259.627 498.255 265.792 493.167 266.688C493.167 266.688 500.054 262.765 500.767 259.136L496.971 257.464C496.971 257.464 493.666 264.16 487.913 265.388C487.913 265.388 494.966 261.038 496.115 257.139L492.153 255.998C492.153 255.998 488.809 262.472 484.015 263.463C484.015 263.463 491.654 257.614 491.234 255.792C491.234 255.792 487.541 254.96 486.479 255.213C486.479 255.213 483.967 259.801 481.13 260.134C481.13 260.134 485.821 255.681 485.433 255.094C485.433 255.094 480.338 255.292 477.802 256.759C480.064 255.293 482.67 254.446 485.362 254.302C484.157 253.161 482.644 252.398 481.011 252.107C481.011 252.107 483.698 250.704 486.558 254.27C486.558 254.27 490.52 254.27 491.067 254.666C491.067 254.666 488.69 250.704 486.083 249.222C486.083 249.222 489.807 249.539 492.121 254.936L496.123 255.998C496.123 255.998 493.262 250.649 491.036 249.119C491.036 249.119 494.784 250.023 497.106 256.354L500.846 257.939C500.846 257.939 498.738 253.145 496.622 250.902C496.622 250.902 499.919 252.487 501.892 258.438L504.269 259.809C504.269 259.809 502.684 256.331 502.122 255.372C501.559 254.413 501.781 254.191 501.781 254.191C503.496 255.885 504.706 258.022 505.276 260.364C505.276 260.364 510.015 263.518 510.228 263.249Z" fill="#6A66EA"/>
<path d="M616.629 132.956C616.629 132.956 601.232 106.972 585.724 121.758C585.724 121.758 582.238 123.264 582.729 127.02C582.729 127.02 584.052 126.18 585.32 128.993C585.773 129.993 586.346 130.935 587.024 131.799C587.934 132.967 589.204 133.803 590.637 134.176V134.176C590.637 134.176 598.284 139.232 611.605 134.176C611.605 134.176 615.472 134.501 616.059 133.986L611.407 130.99C611.407 130.99 609.347 134.485 606.05 135.064C606.05 135.064 611.415 131.236 610.742 130.515C610.599 130.364 608.206 129.033 608.206 129.033C608.206 129.033 604.584 135.095 599.489 135.832C599.489 135.832 606.494 132.124 607.31 128.526L603.57 126.767C603.57 126.767 600.059 133.368 594.267 134.422C594.267 134.422 601.454 130.293 602.722 126.434L598.807 125.166C598.807 125.166 595.257 131.505 590.439 132.377C590.439 132.377 598.253 126.767 597.888 124.936C597.888 124.936 594.227 123.985 593.134 124.207C593.134 124.207 590.479 128.716 587.634 128.962C587.634 128.962 592.46 124.667 592.095 124.064C592.095 124.064 586.992 124.104 584.417 125.491C586.724 124.099 589.354 123.334 592.048 123.272C590.877 122.094 589.386 121.284 587.761 120.942C587.761 120.942 590.495 119.619 593.308 123.272C593.308 123.272 597.27 123.407 597.801 123.811C597.801 123.811 595.558 119.849 592.991 118.216C592.991 118.216 596.7 118.644 598.847 124.112L602.809 125.301C602.809 125.301 600.123 119.865 597.936 118.264C597.936 118.264 601.66 119.286 603.784 125.681L607.469 127.401C607.469 127.401 605.511 122.543 603.507 120.269C603.507 120.269 606.748 121.957 608.546 127.963L610.868 129.406C610.868 129.406 609.379 125.879 608.856 124.904C608.333 123.93 608.554 123.716 608.554 123.716C610.215 125.462 611.359 127.634 611.859 129.992C611.859 129.992 616.4 133.217 616.629 132.956Z" fill="#6A66EA"/>
<path d="M519.215 187.594C519.215 187.594 520.007 157.402 499.031 161.658C499.031 161.658 495.275 161.079 493.69 164.519C493.69 164.519 495.275 164.518 494.831 167.569C494.686 168.657 494.67 169.758 494.784 170.85C494.927 172.331 495.554 173.723 496.567 174.812C496.567 174.812 500.347 183.165 514.302 186.002C514.302 186.002 517.4 188.339 518.177 188.212L515.799 183.204C515.799 183.204 512.194 185.059 509.095 183.799C509.095 183.799 515.673 183.41 515.49 182.444C515.49 182.245 514.127 179.836 514.127 179.836C514.127 179.836 507.835 183.046 503.12 180.938C503.12 180.938 511.045 181.532 513.636 178.925L511.425 175.415C511.425 175.415 504.943 179.123 499.475 176.936C499.475 176.936 507.756 177.269 510.894 174.678L508.255 171.508C508.255 171.508 501.86 175.01 497.328 173.156C497.328 173.156 506.932 172.578 507.629 170.826C507.629 170.826 505.03 168.077 503.984 167.657C503.984 167.657 499.34 170.034 496.804 168.75C496.804 168.75 503.144 167.688 503.184 166.983C503.184 166.983 498.849 164.297 495.925 164.098C498.621 164.147 501.258 164.901 503.572 166.286C503.211 164.666 502.385 163.187 501.195 162.03C501.195 162.03 504.214 162.371 504.626 166.943C504.626 166.943 507.93 169.178 508.144 169.796C508.144 169.796 508.374 165.224 507.051 162.498C507.051 162.498 509.967 164.835 508.873 170.604L511.591 173.727C511.591 173.727 512.21 167.688 511.219 165.176C511.219 165.176 513.818 168.021 512.217 174.567L514.413 177.982C514.413 177.982 515.348 172.823 514.848 169.788C514.848 169.788 516.687 172.958 515.007 178.988L516.211 181.445C516.211 181.445 516.822 177.665 516.901 176.564C516.98 175.462 517.281 175.391 517.281 175.391C517.758 177.755 517.569 180.205 516.734 182.467C516.734 182.467 518.866 187.697 519.215 187.594Z" fill="#6A66EA"/>
<path opacity="0.2" d="M553.892 571.23C565.678 571.23 575.232 569.616 575.232 567.625C575.232 565.634 565.678 564.019 553.892 564.019C542.106 564.019 532.551 565.634 532.551 567.625C532.551 569.616 542.106 571.23 553.892 571.23Z" fill="#A3BFFA"/>
<path opacity="0.2" d="M476.098 625.972C487.884 625.972 497.438 624.358 497.438 622.367C497.438 620.375 487.884 618.761 476.098 618.761C464.312 618.761 454.758 620.375 454.758 622.367C454.758 624.358 464.312 625.972 476.098 625.972Z" fill="#A3BFFA"/>
<path opacity="0.2" d="M73.8079 597.928C85.5939 597.928 95.1483 596.313 95.1483 594.322C95.1483 592.331 85.5939 590.717 73.8079 590.717C62.0219 590.717 52.4675 592.331 52.4675 594.322C52.4675 596.313 62.0219 597.928 73.8079 597.928Z" fill="#7F9CF5"/>
<path opacity="0.2" d="M637.962 622.367C649.748 622.367 659.302 620.752 659.302 618.761C659.302 616.77 649.748 615.155 637.962 615.155C626.176 615.155 616.621 616.77 616.621 618.761C616.621 620.752 626.176 622.367 637.962 622.367Z" fill="#A3BFFA"/>
<path d="M660.182 578.402C677.78 578.402 692.046 575.989 692.046 573.013C692.046 570.037 677.78 567.625 660.182 567.625C642.584 567.625 628.318 570.037 628.318 573.013C628.318 575.989 642.584 578.402 660.182 578.402Z" fill="#3F31A6"/>
<path d="M673.392 564.194C674.846 563.012 675.905 561.414 676.427 559.613C676.823 557.791 676.047 555.611 674.311 554.946C672.362 554.201 670.278 555.548 668.693 556.911C667.108 558.274 665.309 559.835 663.241 559.55C664.302 558.585 665.097 557.363 665.547 556.001C665.997 554.638 666.087 553.183 665.808 551.776C665.718 551.193 665.472 550.645 665.095 550.191C664.009 549.034 662.052 549.533 660.752 550.445C656.632 553.345 655.483 558.94 655.459 563.98C655.047 562.165 655.396 560.271 655.388 558.433C655.38 556.594 654.865 554.47 653.288 553.504C652.32 552.964 651.226 552.69 650.118 552.711C648.264 552.648 646.195 552.83 644.935 554.185C643.35 555.865 643.77 558.694 645.133 560.525C646.496 562.355 648.581 563.536 650.498 564.82C652.033 565.736 653.344 566.984 654.334 568.473C654.447 568.68 654.539 568.898 654.611 569.123H666.228C668.829 567.813 671.239 566.154 673.392 564.194V564.194Z" fill="#3F31A6"/>
<path d="M59.4805 577.562C59.4805 577.562 71.6445 577.19 75.3293 574.575C79.0142 571.959 94.0547 568.845 94.966 573.037C95.8773 577.229 113.256 593.87 99.5146 593.981C85.7737 594.092 67.5872 591.842 63.9261 589.607C60.265 587.372 59.4805 577.562 59.4805 577.562Z" fill="#A0AEC0"/>
<path opacity="0.2" d="M99.7444 592.523C86.0035 592.634 67.817 590.384 64.1559 588.149C61.3665 586.453 60.2571 580.359 59.8847 577.546H59.4805C59.4805 577.546 60.273 587.365 63.9103 589.591C67.5476 591.818 85.7578 594.076 99.4988 593.966C103.461 593.966 104.832 592.523 104.761 590.431C104.206 591.707 102.692 592.5 99.7444 592.523Z" fill="#1A202C"/>
</g>
<defs>
<clipPath id="clip0">
<rect width="800" height="625.972" fill="white"/>
</clipPath>
</defs>
</svg>
